<svg id="svg" version="1.1" xmlns="http://www.w3.org/2000/svg" xmlns:xlink="http://www.w3.org/1999/xlink" width="400" height="101.73328616908383" viewBox="0, 0, 400,101.73328616908383"><g id="svgg"><path id="path0" d="M30.204 17.515 C 22.107 19.381,18.460 28.993,23.190 36.000 C 23.960 37.140,24.884 38.167,25.140 38.167 C 25.246 38.167,25.333 38.242,25.333 38.333 C 25.333 38.513,27.793 40.167,28.061 40.167 C 28.151 40.167,28.717 40.366,29.320 40.609 C 30.539 41.100,34.749 41.270,36.000 40.877 C 38.616 40.057,39.911 39.281,41.708 37.459 C 42.510 36.646,43.167 35.907,43.167 35.817 C 43.167 35.727,43.317 35.450,43.500 35.202 C 45.042 33.112,45.495 28.342,44.438 25.319 C 42.355 19.356,36.394 16.088,30.204 17.515 M30.833 47.930 C 30.512 47.966,29.238 48.116,28.000 48.263 C 20.893 49.111,15.879 52.405,12.035 58.750 C 8.761 64.152,6.060 76.173,7.404 79.355 C 8.613 82.217,13.280 82.813,15.522 80.391 C 16.131 79.733,16.833 77.092,16.833 75.461 C 16.833 74.800,17.708 70.956,18.265 69.167 C 21.159 59.882,26.745 56.466,36.677 57.908 C 39.728 58.351,44.030 60.795,45.500 62.921 C 45.729 63.252,46.072 63.724,46.261 63.970 C 46.450 64.216,46.765 64.730,46.960 65.113 C 47.155 65.496,47.392 65.946,47.485 66.113 C 48.441 67.821,49.672 72.801,50.341 77.663 C 50.665 80.017,50.688 80.091,51.263 80.680 C 53.525 82.996,57.262 82.444,59.225 79.505 C 59.601 78.942,59.582 77.325,59.165 74.417 C 58.134 67.221,56.689 62.813,53.931 58.440 C 53.419 57.628,53.000 56.912,53.000 56.849 C 53.000 56.747,51.689 55.203,51.000 54.492 C 50.622 54.102,48.640 52.440,48.167 52.115 C 46.864 51.222,46.281 50.872,45.017 50.221 C 44.247 49.824,43.528 49.500,43.420 49.500 C 43.312 49.500,42.773 49.317,42.222 49.093 C 40.178 48.262,33.748 47.606,30.833 47.930 " stroke="none" fill="#38b2e3" fill-rule="evenodd"></path><path id="path1" d="M72.833 8.234 C 70.604 8.832,69.128 9.699,67.417 11.416 C 66.520 12.315,65.667 13.478,65.667 13.801 C 65.667 13.910,65.604 14.000,65.528 14.000 C 65.452 14.000,65.235 14.356,65.045 14.792 C 62.189 21.335,65.420 28.835,72.098 31.166 C 74.072 31.855,77.754 31.939,79.427 31.333 C 79.971 31.136,80.604 30.915,80.833 30.842 C 83.229 30.086,86.380 26.692,87.322 23.854 C 90.422 14.515,82.251 5.706,72.833 8.234 M74.333 38.007 C 71.258 38.277,70.704 38.352,69.469 38.669 C 67.715 39.118,66.685 39.471,66.032 39.848 C 65.729 40.023,65.412 40.167,65.327 40.167 C 65.129 40.167,63.023 41.453,62.712 41.764 C 62.582 41.894,62.416 42.000,62.343 42.000 C 62.023 42.000,58.881 45.337,57.869 46.752 C 55.956 49.428,54.445 52.455,53.332 55.847 L 52.977 56.928 54.012 58.576 C 55.712 61.280,57.066 64.516,57.979 68.056 C 58.414 69.741,58.651 71.054,59.295 75.333 C 59.431 76.237,59.437 76.217,59.726 73.917 C 60.742 65.831,62.487 59.740,64.759 56.350 C 65.029 55.947,65.325 55.497,65.417 55.350 C 65.691 54.912,68.522 52.167,68.700 52.167 C 68.791 52.167,69.070 52.021,69.321 51.842 C 69.571 51.664,70.108 51.397,70.513 51.250 C 77.914 48.553,86.302 51.686,89.699 58.417 C 91.131 61.252,92.441 65.332,92.750 67.917 C 92.805 68.375,92.920 69.125,93.007 69.583 C 93.324 71.273,93.651 73.779,93.686 74.792 C 93.754 76.800,94.006 76.134,94.331 73.083 C 94.838 68.340,96.932 62.151,99.377 58.171 L 100.045 57.083 99.584 55.750 C 95.279 43.284,86.275 36.958,74.333 38.007 M49.844 76.178 C 49.834 77.350,50.239 79.316,50.448 79.108 C 50.562 78.993,50.170 75.704,49.988 75.250 C 49.902 75.036,49.851 75.369,49.844 76.178 M103.039 78.000 C 103.039 78.321,103.073 78.452,103.115 78.292 C 103.157 78.131,103.157 77.869,103.115 77.708 C 103.073 77.548,103.039 77.679,103.039 78.000 M96.229 81.502 C 97.078 82.190,99.082 82.302,100.208 81.726 C 100.900 81.372,100.777 81.354,99.481 81.621 C 98.294 81.865,97.434 81.770,96.083 81.244 C 95.861 81.158,95.910 81.244,96.229 81.502 " stroke="none" fill="#c1d969" fill-rule="evenodd"></path><path id="path2" d="M117.667 17.426 C 117.162 17.553,116.556 17.696,116.319 17.743 C 116.082 17.790,115.369 18.097,114.736 18.425 C 103.419 24.288,107.314 41.037,120.000 41.058 L 122.583 41.062 124.151 40.429 C 126.899 39.319,129.040 37.589,130.181 35.557 C 130.360 35.239,130.610 34.815,130.736 34.614 C 132.413 31.952,132.329 26.138,130.574 23.462 C 130.350 23.120,130.167 22.790,130.167 22.729 C 130.167 22.576,129.047 21.218,128.317 20.486 C 125.787 17.948,121.025 16.579,117.667 17.426 M117.500 47.949 C 112.065 48.369,107.888 49.669,104.917 51.864 C 103.024 53.262,100.662 55.705,100.062 56.886 C 99.867 57.269,99.285 58.333,98.770 59.250 C 95.652 64.794,92.909 76.426,94.067 79.188 C 94.821 80.984,97.122 82.103,99.198 81.682 C 99.685 81.583,100.233 81.476,100.417 81.443 C 101.109 81.321,101.616 81.014,102.211 80.355 C 102.848 79.649,102.936 79.422,103.062 78.167 C 103.524 73.530,105.746 66.063,107.322 63.849 C 107.512 63.583,107.667 63.294,107.667 63.207 C 107.667 62.886,110.614 60.018,111.500 59.477 C 113.150 58.469,115.014 57.879,117.135 57.695 C 122.298 57.246,127.747 58.596,130.295 60.955 C 130.417 61.067,130.645 61.255,130.803 61.371 C 132.708 62.780,135.242 67.551,135.828 70.833 C 135.902 71.246,136.156 72.596,136.392 73.833 C 136.628 75.071,136.927 76.931,137.056 77.968 C 137.329 80.167,137.642 80.700,139.160 81.557 C 141.322 82.779,144.794 81.753,145.977 79.543 C 146.592 78.394,145.914 71.960,144.716 67.583 C 140.904 53.650,131.502 46.868,117.500 47.949 " stroke="none" fill="#fce48c" fill-rule="evenodd"></path><path id="path3" d="M168.444 14.944 C 168.383 15.006,168.333 16.731,168.333 18.778 L 168.333 22.500 170.708 22.463 L 173.083 22.427 170.792 22.375 L 168.500 22.324 168.500 18.667 L 168.500 15.009 170.792 14.958 L 173.083 14.906 170.819 14.870 C 169.574 14.850,168.506 14.883,168.444 14.944 M213.245 26.417 C 213.245 31.733,213.266 33.932,213.292 31.304 C 213.317 28.675,213.317 24.325,213.292 21.637 C 213.266 18.949,213.245 21.100,213.245 26.417 M191.198 24.291 C 192.362 24.320,194.312 24.320,195.532 24.291 C 196.752 24.263,195.800 24.239,193.417 24.239 C 191.033 24.239,190.035 24.263,191.198 24.291 M325.865 24.291 C 327.029 24.320,328.979 24.320,330.198 24.291 C 331.418 24.263,330.467 24.239,328.083 24.239 C 325.700 24.239,324.702 24.263,325.865 24.291 M310.908 30.667 C 310.908 33.646,310.930 34.865,310.958 33.375 C 310.986 31.885,310.986 29.448,310.958 27.958 C 310.930 26.469,310.908 27.688,310.908 30.667 M303.074 30.833 C 303.074 33.813,303.097 35.031,303.125 33.542 C 303.152 32.052,303.152 29.615,303.125 28.125 C 303.097 26.635,303.074 27.854,303.074 30.833 M317.545 26.333 C 317.545 26.746,317.578 26.915,317.618 26.708 C 317.657 26.502,317.657 26.165,317.618 25.958 C 317.578 25.752,317.545 25.921,317.545 26.333 M168.405 32.000 C 168.405 34.246,168.429 35.165,168.458 34.042 C 168.487 32.919,168.487 31.081,168.458 29.958 C 168.429 28.835,168.405 29.754,168.405 32.000 M193.044 36.953 C 193.297 36.991,193.672 36.990,193.877 36.951 C 194.082 36.911,193.875 36.880,193.417 36.881 C 192.958 36.882,192.791 36.915,193.044 36.953 M253.792 36.951 C 253.998 36.991,254.335 36.991,254.542 36.951 C 254.748 36.911,254.579 36.879,254.167 36.879 C 253.754 36.879,253.585 36.911,253.792 36.951 M275.792 36.951 C 275.998 36.991,276.335 36.991,276.542 36.951 C 276.748 36.911,276.579 36.879,276.167 36.879 C 275.754 36.879,275.585 36.911,275.792 36.951 M327.542 36.953 C 327.794 36.991,328.206 36.991,328.458 36.953 C 328.710 36.915,328.504 36.883,328.000 36.883 C 327.496 36.883,327.290 36.915,327.542 36.953 M175.042 42.453 C 175.294 42.491,175.706 42.491,175.958 42.453 C 176.210 42.415,176.004 42.383,175.500 42.383 C 174.996 42.383,174.790 42.415,175.042 42.453 M331.300 44.291 C 332.060 44.322,333.260 44.322,333.966 44.290 C 334.672 44.259,334.050 44.234,332.583 44.234 C 331.117 44.234,330.539 44.260,331.300 44.291 M175.294 47.951 C 175.501 47.991,175.801 47.990,175.960 47.948 C 176.120 47.906,175.950 47.874,175.583 47.875 C 175.217 47.877,175.086 47.911,175.294 47.951 M240.292 50.457 C 241.048 50.488,242.285 50.488,243.042 50.457 C 243.798 50.426,243.179 50.401,241.667 50.401 C 240.154 50.401,239.535 50.426,240.292 50.457 M292.792 50.457 C 293.548 50.488,294.785 50.488,295.542 50.457 C 296.298 50.426,295.679 50.401,294.167 50.401 C 292.654 50.401,292.035 50.426,292.792 50.457 M320.958 50.457 C 321.715 50.488,322.952 50.488,323.708 50.457 C 324.465 50.426,323.846 50.401,322.333 50.401 C 320.821 50.401,320.202 50.426,320.958 50.457 M326.965 50.457 C 327.541 50.490,328.441 50.489,328.965 50.456 C 329.488 50.423,329.017 50.397,327.917 50.397 C 326.817 50.397,326.388 50.424,326.965 50.457 M336.382 50.457 C 337.004 50.489,337.979 50.489,338.549 50.457 C 339.118 50.424,338.608 50.398,337.417 50.398 C 336.225 50.398,335.759 50.425,336.382 50.457 M343.800 50.457 C 344.560 50.488,345.760 50.488,346.466 50.457 C 347.172 50.426,346.550 50.401,345.083 50.401 C 343.617 50.401,343.039 50.427,343.800 50.457 M373.875 50.457 C 374.585 50.488,375.748 50.488,376.458 50.457 C 377.169 50.426,376.587 50.400,375.167 50.400 C 373.746 50.400,373.165 50.426,373.875 50.457 M162.055 56.583 C 162.055 57.225,162.086 57.467,162.122 57.121 C 162.158 56.775,162.157 56.250,162.120 55.955 C 162.083 55.659,162.054 55.942,162.055 56.583 M274.039 60.167 C 274.039 60.487,274.073 60.619,274.115 60.458 C 274.157 60.298,274.157 60.035,274.115 59.875 C 274.073 59.715,274.039 59.846,274.039 60.167 M319.705 60.167 C 319.705 60.487,319.740 60.619,319.782 60.458 C 319.823 60.298,319.823 60.035,319.782 59.875 C 319.740 59.715,319.705 59.846,319.705 60.167 M186.039 60.667 C 186.039 60.987,186.073 61.119,186.115 60.958 C 186.157 60.798,186.157 60.535,186.115 60.375 C 186.073 60.215,186.039 60.346,186.039 60.667 M175.294 65.285 C 175.501 65.324,175.801 65.323,175.960 65.281 C 176.120 65.239,175.950 65.207,175.583 65.209 C 175.217 65.211,175.086 65.245,175.294 65.285 M260.708 83.291 C 261.510 83.321,262.823 83.321,263.625 83.291 C 264.427 83.260,263.771 83.235,262.167 83.235 C 260.563 83.235,259.906 83.260,260.708 83.291 " stroke="none" fill="#444444" fill-rule="evenodd"></path><path id="path4" d="M206.227 8.391 C 205.181 9.111,204.807 9.772,204.709 11.068 C 204.618 12.283,205.211 13.886,205.825 14.081 C 206.013 14.140,206.167 14.252,206.167 14.328 C 206.167 14.567,207.177 14.833,208.080 14.833 C 210.402 14.833,211.870 12.332,210.975 9.902 C 210.241 7.910,207.973 7.188,206.227 8.391 M290.531 8.430 C 289.304 9.234,288.429 11.707,289.125 12.403 C 289.194 12.472,289.258 12.578,289.267 12.639 C 289.380 13.386,290.069 14.265,290.565 14.296 C 290.646 14.301,290.772 14.401,290.845 14.519 C 291.228 15.139,294.006 14.780,294.276 14.076 C 294.327 13.943,294.430 13.874,294.506 13.920 C 294.660 14.016,294.888 13.712,294.945 13.336 C 294.965 13.201,295.060 13.063,295.155 13.032 C 295.746 12.835,295.737 10.740,295.140 9.537 C 294.767 8.785,293.775 7.914,293.491 8.089 C 293.417 8.135,293.309 8.096,293.252 8.003 C 292.997 7.590,291.440 7.835,290.531 8.430 M162.833 22.750 L 162.833 36.167 165.625 36.167 L 168.417 36.167 168.369 32.083 L 168.322 28.000 170.147 28.000 C 171.978 28.000,172.569 28.087,172.416 28.334 C 172.371 28.408,172.577 28.836,172.875 29.287 C 173.173 29.737,173.679 30.542,174.000 31.076 C 174.321 31.610,174.715 32.186,174.875 32.356 C 175.035 32.527,175.167 32.768,175.167 32.891 C 175.167 33.015,175.298 33.271,175.458 33.460 C 176.210 34.349,176.301 34.476,176.234 34.543 C 176.195 34.583,176.351 34.892,176.582 35.231 C 176.812 35.571,177.000 35.920,177.000 36.007 C 177.000 36.103,178.325 36.167,180.333 36.167 C 184.031 36.167,183.940 36.203,183.167 35.057 C 182.892 34.650,182.667 34.251,182.667 34.170 C 182.667 34.090,182.568 33.925,182.447 33.804 C 182.327 33.682,182.011 33.208,181.745 32.750 C 181.479 32.292,181.165 31.818,181.047 31.696 C 180.930 31.575,180.833 31.373,180.833 31.246 C 180.833 31.120,180.740 30.957,180.625 30.883 C 180.510 30.810,180.243 30.395,180.032 29.962 C 179.820 29.529,179.580 29.132,179.497 29.081 C 179.414 29.030,179.108 28.541,178.817 27.994 C 178.525 27.447,178.208 27.000,178.112 27.000 C 177.900 27.000,178.373 26.560,179.167 26.019 C 180.106 25.377,181.667 23.287,181.667 22.669 C 181.667 22.495,181.731 22.313,181.810 22.264 C 182.673 21.731,182.674 15.167,181.811 15.167 C 181.732 15.167,181.667 14.987,181.667 14.767 C 181.667 13.768,179.172 11.024,177.575 10.268 C 175.596 9.330,175.623 9.333,168.994 9.333 L 162.833 9.333 162.833 22.750 M174.451 15.222 C 175.879 15.968,176.887 17.927,176.522 19.249 C 176.433 19.570,176.390 19.833,176.427 19.833 C 176.463 19.833,176.344 20.077,176.161 20.375 C 175.978 20.673,175.783 21.048,175.728 21.208 C 175.673 21.369,175.522 21.500,175.392 21.500 C 175.262 21.500,175.116 21.606,175.066 21.735 C 175.016 21.864,174.794 22.016,174.571 22.071 C 174.349 22.127,174.167 22.234,174.167 22.308 C 174.167 22.382,172.854 22.460,171.250 22.482 L 168.333 22.522 168.333 18.789 C 168.333 16.735,168.390 14.997,168.458 14.926 C 168.710 14.666,173.874 14.921,174.451 15.222 M191.167 16.015 C 190.192 16.296,189.168 16.742,189.167 16.885 C 189.167 16.959,189.091 16.973,188.998 16.916 C 188.820 16.806,187.167 17.800,187.167 18.017 C 187.167 18.087,187.017 18.192,186.833 18.250 C 186.650 18.308,186.500 18.468,186.500 18.604 C 186.500 18.741,186.427 18.808,186.338 18.753 C 185.983 18.534,183.967 21.575,183.633 22.833 C 182.996 25.235,182.873 27.807,183.341 28.917 C 183.457 29.192,183.578 29.604,183.609 29.833 C 183.678 30.342,184.357 31.667,184.548 31.667 C 184.624 31.667,184.646 31.733,184.596 31.813 C 184.450 32.050,185.818 33.684,187.201 34.926 C 187.744 35.413,189.487 36.282,190.171 36.407 C 190.983 36.555,191.057 36.576,191.292 36.723 C 191.998 37.164,195.987 36.805,197.583 36.156 C 197.767 36.082,198.085 35.974,198.292 35.916 C 198.498 35.858,198.667 35.741,198.667 35.655 C 198.667 35.570,198.784 35.500,198.928 35.500 C 199.566 35.500,202.333 33.114,202.333 32.564 C 202.333 32.433,201.977 32.104,201.542 31.833 C 201.106 31.562,200.603 31.226,200.424 31.087 C 200.245 30.947,200.040 30.833,199.968 30.833 C 199.895 30.833,199.492 30.571,199.072 30.250 C 198.120 29.523,197.895 29.523,197.045 30.250 C 196.670 30.571,196.278 30.833,196.174 30.833 C 196.069 30.833,195.700 30.970,195.354 31.138 C 193.646 31.963,191.094 31.299,189.973 29.738 C 189.682 29.332,189.381 29.000,189.305 29.000 C 189.229 29.000,189.167 28.850,189.167 28.667 C 189.167 28.339,189.278 28.333,196.322 28.333 C 202.993 28.333,203.483 28.314,203.563 28.042 C 203.930 26.796,203.173 21.840,202.615 21.835 C 202.541 21.834,202.527 21.758,202.583 21.667 C 202.640 21.575,202.616 21.500,202.531 21.500 C 202.445 21.500,202.332 21.294,202.280 21.042 C 202.228 20.790,201.956 20.335,201.676 20.031 C 201.396 19.728,201.167 19.424,201.167 19.356 C 201.167 18.872,198.252 16.824,197.128 16.519 C 197.061 16.500,196.723 16.361,196.378 16.210 C 195.631 15.882,192.087 15.750,191.167 16.015 M222.097 15.958 C 222.028 16.027,221.903 16.093,221.819 16.104 C 221.735 16.116,221.629 16.144,221.583 16.167 C 221.537 16.190,221.444 16.220,221.375 16.235 C 221.031 16.307,219.840 17.198,219.368 17.736 L 218.833 18.345 218.833 17.506 L 218.833 16.667 216.042 16.667 L 213.250 16.667 213.250 26.417 L 213.250 36.167 216.042 36.167 L 218.833 36.167 218.833 30.718 C 218.833 24.743,218.955 23.580,219.665 22.776 C 219.895 22.515,220.046 22.266,220.000 22.223 C 219.568 21.812,222.123 21.219,223.003 21.526 C 224.997 22.221,225.264 23.290,225.304 30.750 L 225.333 36.167 228.083 36.167 L 230.833 36.167 230.853 30.792 C 230.864 27.835,230.861 25.351,230.846 25.272 C 230.832 25.192,230.941 24.742,231.089 24.272 C 231.880 21.754,233.430 20.785,235.254 21.668 C 237.072 22.549,237.333 23.718,237.333 30.990 L 237.333 36.167 240.093 36.167 L 242.853 36.167 242.801 28.875 L 242.750 21.583 242.101 20.250 C 241.744 19.517,241.294 18.739,241.101 18.522 C 240.260 17.576,239.395 16.837,239.125 16.835 C 238.965 16.834,238.833 16.769,238.833 16.690 C 238.833 16.129,234.102 15.454,233.611 15.944 C 233.550 16.005,233.328 16.073,233.117 16.096 C 232.240 16.189,230.505 17.183,229.625 18.096 L 229.130 18.608 228.291 17.721 C 227.829 17.233,227.337 16.833,227.197 16.833 C 227.057 16.833,226.825 16.729,226.680 16.601 C 225.998 15.998,222.542 15.514,222.097 15.958 M251.833 16.063 C 251.421 16.182,250.843 16.404,250.550 16.556 C 250.257 16.709,249.935 16.833,249.834 16.833 C 249.445 16.833,246.667 19.046,246.667 19.357 C 246.667 19.425,246.405 19.767,246.084 20.116 C 245.764 20.465,245.501 20.919,245.501 21.125 C 245.500 21.331,245.439 21.500,245.365 21.500 C 244.368 21.500,243.843 28.492,244.721 30.083 C 244.822 30.267,244.914 30.454,244.926 30.500 C 245.078 31.115,246.667 33.769,246.667 33.409 C 246.667 33.332,246.838 33.500,247.046 33.783 C 247.448 34.327,248.761 35.486,249.016 35.521 C 249.099 35.532,249.244 35.551,249.339 35.563 C 249.434 35.574,249.566 35.658,249.631 35.750 C 250.327 36.727,256.068 37.334,256.592 36.485 C 256.644 36.402,256.836 36.333,257.018 36.333 C 257.200 36.333,257.801 36.033,258.353 35.667 C 259.565 34.862,259.500 34.867,259.500 35.583 L 259.500 36.167 262.333 36.167 L 265.167 36.167 265.167 26.417 L 265.167 16.667 262.333 16.667 L 259.500 16.667 259.500 17.256 C 259.500 17.874,259.246 17.883,258.638 17.284 C 257.482 16.145,253.820 15.488,251.833 16.063 M273.867 16.079 C 273.137 16.307,272.355 16.637,271.361 17.137 C 270.612 17.514,269.134 18.780,268.870 19.270 C 268.752 19.488,268.592 19.667,268.514 19.667 C 268.262 19.667,267.033 21.904,266.909 22.588 C 266.844 22.952,266.732 23.325,266.661 23.417 C 265.656 24.712,266.213 29.287,267.702 31.970 C 268.327 33.095,270.678 35.500,271.153 35.500 C 271.335 35.500,271.543 35.604,271.617 35.731 C 271.750 35.963,273.104 36.500,273.775 36.587 C 273.972 36.613,274.295 36.685,274.493 36.748 C 275.846 37.177,279.143 36.654,280.083 35.860 C 280.267 35.706,280.653 35.449,280.942 35.290 L 281.467 35.001 281.527 35.765 C 281.561 36.185,281.529 36.566,281.456 36.610 C 281.384 36.655,281.342 36.780,281.364 36.888 C 281.386 36.995,281.320 37.233,281.218 37.417 C 281.116 37.600,281.033 37.825,281.034 37.917 C 281.039 38.440,279.839 39.855,278.917 40.414 C 277.186 41.463,274.713 41.031,273.470 39.463 C 272.928 38.778,272.805 38.727,272.466 39.042 C 272.343 39.156,272.142 39.271,272.020 39.298 C 271.898 39.324,271.681 39.462,271.539 39.604 C 271.397 39.746,270.982 40.062,270.618 40.306 C 269.408 41.116,269.228 41.247,268.695 41.698 C 268.080 42.218,268.041 42.419,268.500 42.705 C 268.683 42.820,268.833 43.006,268.833 43.120 C 268.833 43.233,269.037 43.459,269.286 43.621 C 269.534 43.784,269.918 44.083,270.137 44.286 C 270.357 44.490,270.696 44.706,270.890 44.768 C 271.085 44.830,271.433 45.019,271.663 45.188 C 273.861 46.800,279.656 46.786,281.868 45.164 C 282.117 44.982,282.381 44.833,282.455 44.833 C 282.529 44.833,283.114 44.346,283.753 43.751 C 284.393 43.156,284.857 42.668,284.785 42.668 C 284.712 42.667,284.846 42.460,285.081 42.208 C 285.649 41.598,286.607 39.729,286.724 39.000 C 286.775 38.679,286.894 38.117,286.988 37.750 C 287.095 37.331,287.160 33.288,287.163 26.875 L 287.167 16.667 284.333 16.667 L 281.500 16.667 281.500 17.167 C 281.500 17.500,281.417 17.667,281.250 17.667 C 281.112 17.667,281.000 17.592,281.000 17.500 C 281.000 17.408,280.887 17.333,280.750 17.333 C 280.612 17.333,280.500 17.270,280.500 17.192 C 280.500 17.047,279.183 16.437,278.958 16.477 C 278.890 16.490,278.833 16.437,278.833 16.360 C 278.833 15.860,275.223 15.656,273.867 16.079 M307.167 15.976 C 307.167 16.075,307.058 16.114,306.925 16.063 C 306.792 16.012,306.285 16.181,305.800 16.437 C 304.967 16.877,304.627 17.132,303.595 18.088 L 303.167 18.485 303.167 17.576 L 303.167 16.667 300.333 16.667 L 297.500 16.667 297.500 26.417 L 297.500 36.167 300.250 36.167 L 303.000 36.167 303.000 30.982 C 303.000 26.683,303.048 25.594,303.283 24.607 C 304.113 21.118,308.230 20.181,310.044 23.069 C 310.938 24.493,311.014 25.138,310.963 30.892 L 310.917 36.167 313.708 36.167 L 316.500 36.167 316.500 29.510 C 316.500 25.181,316.441 22.816,316.331 22.748 C 316.237 22.691,316.201 22.579,316.251 22.499 C 316.770 21.659,313.454 16.833,312.358 16.833 C 312.259 16.833,311.820 16.630,311.381 16.382 C 310.510 15.890,307.167 15.567,307.167 15.976 M326.000 15.933 C 325.862 15.985,325.637 16.069,325.500 16.122 C 325.362 16.174,325.153 16.237,325.035 16.261 C 324.550 16.362,323.335 16.926,323.334 17.052 C 323.334 17.126,323.258 17.140,323.167 17.083 C 323.075 17.027,323.000 17.072,323.000 17.185 C 323.000 17.297,322.956 17.345,322.903 17.292 C 322.733 17.122,320.283 18.951,320.409 19.155 C 320.445 19.213,320.256 19.436,319.988 19.649 C 319.719 19.863,319.500 20.100,319.500 20.177 C 319.500 20.254,319.291 20.639,319.036 21.033 C 318.090 22.494,317.643 24.175,317.648 26.250 C 317.653 28.445,317.672 28.667,317.854 28.667 C 317.945 28.667,317.978 28.735,317.926 28.818 C 317.790 29.038,318.784 31.551,319.171 31.966 C 319.352 32.161,319.500 32.403,319.500 32.504 C 319.500 32.790,322.160 35.357,322.340 35.246 C 322.428 35.191,322.500 35.214,322.500 35.297 C 322.500 35.443,323.105 35.780,323.398 35.797 C 323.479 35.801,323.592 35.878,323.648 35.966 C 324.051 36.604,329.338 37.187,330.285 36.698 C 330.449 36.613,330.883 36.493,331.250 36.432 C 332.140 36.282,332.833 35.999,332.833 35.785 C 332.833 35.690,332.880 35.658,332.937 35.715 C 333.075 35.853,334.333 35.206,334.333 34.997 C 334.333 34.907,334.420 34.833,334.526 34.833 C 334.835 34.833,335.760 34.062,336.425 33.251 L 337.039 32.502 336.644 32.173 C 336.427 31.992,336.195 31.842,336.128 31.839 C 336.062 31.836,335.283 31.346,334.398 30.750 C 332.539 29.499,332.457 29.483,331.631 30.218 C 330.355 31.354,327.647 31.837,326.327 31.163 C 325.964 30.978,325.667 30.868,325.667 30.918 C 325.667 31.068,324.173 29.429,324.169 29.276 C 324.168 29.198,324.025 28.936,323.852 28.692 L 323.536 28.250 330.856 28.295 L 338.175 28.340 338.155 26.314 C 338.135 24.281,337.867 22.846,337.412 22.333 C 337.187 22.079,337.167 22.018,337.167 21.595 C 337.167 21.464,337.049 21.239,336.905 21.095 C 336.761 20.951,336.691 20.833,336.750 20.833 C 336.851 20.833,336.717 20.640,335.787 19.439 C 335.313 18.828,334.168 17.743,334.026 17.771 C 333.966 17.783,333.705 17.614,333.446 17.396 C 333.186 17.178,332.905 16.991,332.821 16.979 C 332.552 16.943,332.438 16.897,331.417 16.416 C 330.431 15.952,326.816 15.630,326.000 15.933 M205.207 26.375 L 205.250 36.083 208.000 36.083 L 210.750 36.083 210.793 26.375 L 210.836 16.667 208.000 16.667 L 205.164 16.667 205.207 26.375 M289.540 26.375 L 289.583 36.083 292.292 36.129 L 295.000 36.175 295.000 26.421 L 295.000 16.667 292.249 16.667 L 289.497 16.667 289.540 26.375 M195.410 21.694 C 195.643 21.800,195.833 21.952,195.833 22.031 C 195.833 22.110,196.021 22.246,196.250 22.333 C 196.479 22.420,196.667 22.573,196.667 22.672 C 196.667 22.772,196.760 22.799,196.875 22.733 C 196.990 22.667,197.030 22.672,196.966 22.744 C 196.901 22.816,197.032 23.116,197.257 23.411 C 197.972 24.348,198.033 24.333,193.417 24.333 C 188.799 24.333,188.865 24.350,189.709 23.422 C 189.961 23.144,190.210 22.785,190.262 22.625 C 190.313 22.465,190.429 22.333,190.518 22.333 C 190.607 22.333,190.893 22.176,191.154 21.983 C 192.029 21.336,194.289 21.183,195.410 21.694 M256.333 21.509 C 256.379 21.559,256.687 21.765,257.018 21.966 C 258.708 22.993,259.496 24.387,259.498 26.355 C 259.500 27.769,259.191 29.000,258.834 29.000 C 258.746 29.000,258.626 29.188,258.568 29.417 C 258.511 29.646,258.393 29.833,258.305 29.833 C 258.218 29.833,258.201 29.927,258.267 30.042 C 258.333 30.156,258.323 30.192,258.246 30.122 C 258.169 30.052,257.857 30.235,257.553 30.530 C 257.249 30.824,257.000 31.011,257.000 30.943 C 257.000 30.876,256.831 30.914,256.625 31.028 C 254.516 32.188,251.554 31.018,250.435 28.583 C 249.137 25.759,250.848 21.895,253.595 21.449 C 254.229 21.346,256.225 21.390,256.333 21.509 M278.721 21.696 C 278.916 21.800,279.177 21.987,279.300 22.110 C 279.423 22.233,279.628 22.333,279.756 22.333 C 279.884 22.333,280.078 22.502,280.187 22.708 C 280.296 22.915,280.528 23.233,280.703 23.417 C 280.877 23.600,281.019 23.805,281.017 23.872 C 281.015 23.939,281.159 24.314,281.336 24.705 C 282.723 27.761,279.795 31.801,276.443 31.455 C 273.376 31.138,271.100 27.528,272.243 24.792 C 272.377 24.471,272.440 24.162,272.382 24.105 C 272.325 24.047,272.365 24.000,272.472 24.000 C 272.579 24.000,272.667 23.920,272.667 23.822 C 272.667 23.603,273.699 22.340,273.882 22.336 C 273.954 22.335,274.227 22.176,274.488 21.983 C 275.356 21.340,277.753 21.178,278.721 21.696 M330.637 22.213 C 331.125 22.600,331.711 23.235,331.939 23.625 L 332.352 24.333 328.096 24.333 L 323.840 24.333 324.043 23.875 C 324.155 23.623,324.346 23.312,324.468 23.185 C 324.590 23.058,324.806 22.776,324.947 22.560 C 325.089 22.344,325.284 22.167,325.381 22.167 C 325.478 22.167,325.694 22.042,325.862 21.890 C 326.789 21.051,329.391 21.227,330.637 22.213 M343.794 41.896 C 342.042 42.673,341.340 45.467,342.473 47.154 C 343.890 49.264,347.037 49.025,348.225 46.717 C 348.963 45.284,348.040 42.121,346.843 41.979 C 346.415 41.929,346.354 41.910,346.236 41.792 C 346.041 41.597,344.302 41.671,343.794 41.896 M173.195 42.638 C 172.583 42.759,171.990 42.866,171.875 42.874 C 171.760 42.882,171.667 42.956,171.667 43.038 C 171.667 43.119,171.592 43.140,171.501 43.084 C 171.291 42.954,168.957 44.039,168.470 44.493 C 168.268 44.680,168.018 44.833,167.913 44.833 C 167.808 44.833,167.525 45.040,167.285 45.292 C 167.044 45.544,166.616 45.928,166.332 46.145 C 166.049 46.362,165.853 46.575,165.896 46.619 C 165.940 46.662,165.727 46.917,165.422 47.184 C 165.118 47.452,164.822 47.857,164.764 48.085 C 164.707 48.313,164.583 48.500,164.488 48.500 C 164.348 48.500,163.948 49.243,163.794 49.791 C 163.775 49.860,163.647 50.047,163.511 50.206 C 163.225 50.540,162.608 52.335,162.322 53.667 C 162.135 54.540,162.075 57.857,162.227 58.917 C 162.479 60.667,163.607 63.667,164.013 63.667 C 164.108 63.667,164.133 63.753,164.068 63.859 C 164.002 63.964,164.087 64.152,164.256 64.275 C 164.425 64.399,164.508 64.500,164.441 64.500 C 164.249 64.500,165.335 66.011,165.599 66.112 C 165.728 66.162,165.833 66.298,165.833 66.414 C 165.833 66.637,167.387 67.982,168.194 68.459 C 168.454 68.613,168.667 68.797,168.667 68.869 C 168.667 68.941,168.792 69.000,168.945 69.000 C 169.098 69.000,169.354 69.117,169.512 69.261 C 169.787 69.509,171.787 70.257,172.555 70.398 C 172.754 70.435,173.388 70.558,173.963 70.672 C 176.151 71.104,179.230 70.441,181.445 69.060 C 182.813 68.207,184.500 66.732,184.500 66.388 C 184.500 66.266,184.598 66.167,184.718 66.167 C 184.923 66.167,186.001 64.795,185.999 64.537 C 185.998 64.471,185.717 64.236,185.374 64.016 C 185.031 63.796,184.370 63.365,183.904 63.058 C 183.439 62.751,183.003 62.500,182.935 62.500 C 182.867 62.500,182.572 62.318,182.281 62.096 C 181.515 61.514,180.892 61.387,180.764 61.788 C 180.624 62.231,178.806 64.086,178.211 64.393 C 176.284 65.390,175.546 65.482,173.918 64.928 C 173.277 64.709,172.684 64.573,172.600 64.624 C 172.515 64.677,172.507 64.624,172.581 64.504 C 172.669 64.362,172.636 64.316,172.484 64.367 C 172.358 64.409,172.028 64.231,171.752 63.972 C 171.476 63.713,171.197 63.501,171.133 63.501 C 170.978 63.500,169.633 62.117,169.404 61.724 C 167.629 58.673,167.276 55.898,168.358 53.518 C 168.541 53.115,168.701 52.646,168.714 52.476 C 168.727 52.306,168.787 52.167,168.847 52.167 C 168.907 52.167,169.160 51.858,169.410 51.480 C 169.868 50.788,171.236 49.333,171.428 49.333 C 171.485 49.333,171.768 49.165,172.057 48.958 C 172.573 48.590,173.263 48.352,174.920 47.972 C 175.882 47.752,177.712 48.280,178.763 49.082 C 179.064 49.312,179.386 49.500,179.478 49.500 C 179.569 49.500,179.689 49.641,179.743 49.813 C 179.798 49.984,180.122 50.413,180.463 50.764 C 180.804 51.116,180.990 51.347,180.877 51.277 C 180.736 51.190,180.702 51.231,180.770 51.408 C 180.928 51.822,182.029 51.352,182.648 50.606 C 182.772 50.456,182.949 50.333,183.040 50.333 C 183.186 50.333,183.793 49.880,184.708 49.086 C 184.869 48.947,185.066 48.833,185.146 48.833 C 185.441 48.833,185.692 48.343,185.579 47.987 C 185.426 47.504,182.518 44.581,182.042 44.430 C 181.835 44.364,181.667 44.239,181.667 44.151 C 181.667 44.008,180.845 43.605,180.685 43.669 C 180.650 43.683,180.575 43.629,180.519 43.547 C 180.360 43.317,179.237 42.833,178.861 42.833 C 178.674 42.833,178.320 42.757,178.073 42.663 C 177.392 42.404,174.447 42.389,173.195 42.638 M208.910 43.375 C 208.866 43.490,208.850 49.508,208.874 56.750 L 208.917 69.917 211.708 69.962 L 214.500 70.008 214.500 56.587 L 214.500 43.167 211.745 43.167 C 209.694 43.167,208.969 43.220,208.910 43.375 M216.500 56.583 L 216.500 70.000 219.333 70.000 L 222.167 70.000 222.167 56.583 L 222.167 43.167 219.333 43.167 L 216.500 43.167 216.500 56.583 M246.833 56.583 L 246.833 70.000 249.667 70.000 L 252.500 70.000 252.500 69.417 C 252.500 69.096,252.539 68.833,252.586 68.833 C 252.727 68.833,253.379 69.232,253.705 69.517 C 255.056 70.699,258.144 71.079,260.500 70.352 C 261.717 69.977,263.500 69.051,263.500 68.794 C 263.500 68.724,263.578 68.667,263.673 68.667 C 263.768 68.667,264.162 68.356,264.548 67.976 C 264.934 67.596,265.137 67.344,265.000 67.415 C 264.862 67.486,264.983 67.328,265.269 67.064 C 268.021 64.515,268.563 58.334,266.353 54.699 C 265.769 53.739,264.517 52.167,264.337 52.167 C 264.257 52.167,263.974 51.960,263.707 51.708 C 263.179 51.210,261.922 50.426,261.611 50.401 C 261.504 50.392,261.204 50.298,260.945 50.192 C 259.296 49.515,256.460 49.482,255.156 50.125 C 254.737 50.331,254.338 50.500,254.269 50.500 C 254.200 50.500,253.816 50.725,253.417 51.000 C 253.017 51.275,252.647 51.500,252.595 51.500 C 252.543 51.500,252.500 49.625,252.500 47.333 L 252.500 43.167 249.667 43.167 L 246.833 43.167 246.833 56.583 M329.721 44.432 C 329.683 44.532,329.674 45.938,329.701 47.557 L 329.750 50.500 327.875 50.500 L 326.000 50.500 326.000 53.093 L 326.000 55.687 327.875 55.635 L 329.750 55.583 329.750 60.903 C 329.750 65.024,329.797 66.238,329.959 66.292 C 330.075 66.330,330.128 66.428,330.078 66.509 C 329.993 66.645,330.587 67.982,330.814 68.167 C 330.870 68.212,330.994 68.391,331.089 68.564 C 331.184 68.737,331.331 68.863,331.414 68.843 C 331.498 68.824,331.627 68.971,331.701 69.170 C 331.774 69.369,331.984 69.571,332.167 69.618 C 332.350 69.666,332.500 69.767,332.500 69.842 C 332.500 69.985,333.162 70.256,333.375 70.200 C 333.444 70.182,333.500 70.236,333.500 70.321 C 333.500 70.719,335.360 70.897,337.563 70.711 C 340.070 70.499,341.575 70.096,341.410 69.681 C 341.290 69.381,341.208 69.006,341.077 68.167 C 340.851 66.723,340.255 64.500,340.094 64.501 C 339.996 64.501,339.654 64.661,339.334 64.856 C 338.386 65.434,336.893 65.470,336.176 64.931 C 335.860 64.694,335.673 64.499,335.759 64.497 C 335.846 64.496,335.804 64.424,335.667 64.337 C 335.457 64.205,335.409 63.487,335.367 59.923 L 335.317 55.667 337.059 55.667 L 338.800 55.667 338.974 54.875 C 339.069 54.440,339.203 53.708,339.270 53.250 C 339.337 52.792,339.403 52.379,339.416 52.333 C 339.998 50.317,340.142 50.458,337.536 50.490 L 335.333 50.516 335.333 47.383 L 335.333 44.250 332.562 44.250 C 330.715 44.250,329.768 44.311,329.721 44.432 M193.375 50.172 C 192.527 50.452,191.833 50.758,191.833 50.851 C 191.833 50.944,191.767 50.979,191.686 50.928 C 191.604 50.878,191.445 50.949,191.332 51.085 C 191.219 51.222,191.029 51.333,190.910 51.333 C 189.807 51.333,187.007 55.031,186.378 57.319 C 186.076 58.420,186.033 62.105,186.316 62.635 C 186.417 62.824,186.502 63.152,186.505 63.364 C 186.521 64.554,190.144 69.412,190.643 68.913 C 190.688 68.867,190.900 68.994,191.113 69.194 C 191.326 69.394,191.500 69.502,191.500 69.434 C 191.500 69.365,191.613 69.422,191.750 69.560 C 192.070 69.880,193.689 70.370,195.500 70.695 C 197.435 71.042,202.333 69.917,202.333 69.125 C 202.333 69.056,202.475 69.000,202.648 69.000 C 202.821 69.000,203.140 68.776,203.356 68.502 C 203.573 68.227,203.829 68.002,203.926 68.002 C 204.123 68.000,205.167 66.969,205.167 66.776 C 205.167 66.708,205.354 66.464,205.583 66.235 C 205.813 66.006,206.000 65.745,206.000 65.656 C 206.000 65.566,206.181 65.207,206.402 64.856 C 208.011 62.308,207.605 56.441,205.673 54.300 C 205.152 53.723,204.989 53.500,205.089 53.500 C 205.145 53.500,204.932 53.256,204.616 52.958 C 204.300 52.660,204.002 52.417,203.953 52.417 C 203.904 52.417,203.705 52.215,203.511 51.968 C 203.317 51.722,202.995 51.468,202.795 51.405 C 202.596 51.341,202.329 51.186,202.203 51.060 C 202.076 50.934,201.911 50.869,201.834 50.916 C 201.758 50.963,201.669 50.923,201.636 50.825 C 201.604 50.728,201.466 50.626,201.330 50.599 C 201.066 50.547,200.760 50.431,199.833 50.034 C 198.611 49.510,195.150 49.584,193.375 50.172 M230.833 50.016 C 230.329 50.195,229.774 50.375,229.599 50.416 C 227.636 50.877,224.199 54.928,223.920 57.111 C 223.880 57.422,223.801 57.751,223.743 57.844 C 223.315 58.537,223.752 63.676,224.301 64.392 C 224.381 64.497,224.570 64.900,224.720 65.286 C 224.870 65.673,225.163 66.195,225.372 66.445 C 226.000 67.203,227.880 69.101,227.736 68.833 C 227.662 68.696,227.887 68.832,228.236 69.136 C 228.842 69.664,229.396 69.956,229.981 70.054 C 230.129 70.079,230.414 70.190,230.615 70.301 C 231.785 70.944,234.831 70.916,236.108 70.250 C 236.369 70.114,236.664 70.002,236.762 70.001 C 236.861 70.000,237.311 69.737,237.762 69.417 C 238.777 68.695,238.833 68.695,238.833 69.417 L 238.833 70.000 241.667 70.000 L 244.500 70.000 244.500 60.258 L 244.500 50.515 241.666 50.466 L 238.833 50.417 238.833 50.953 C 238.833 51.558,238.749 51.550,237.591 50.834 C 237.228 50.610,236.791 50.405,236.620 50.379 C 236.448 50.353,236.145 50.241,235.946 50.131 C 235.746 50.020,235.490 49.949,235.375 49.972 C 235.260 49.996,235.167 49.936,235.167 49.841 C 235.167 49.517,231.861 49.650,230.833 50.016 M276.893 49.816 C 276.605 49.890,276.230 50.010,276.060 50.084 C 275.889 50.157,275.608 50.244,275.435 50.278 C 274.879 50.385,273.221 51.246,272.535 51.784 C 271.386 52.684,269.753 54.569,269.907 54.817 C 269.957 54.899,269.881 55.010,269.738 55.065 C 269.596 55.119,269.526 55.240,269.583 55.332 C 269.640 55.424,269.602 55.500,269.500 55.500 C 269.398 55.500,269.360 55.575,269.417 55.667 C 269.473 55.758,269.449 55.833,269.363 55.833 C 268.107 55.833,268.159 62.842,269.431 64.856 C 269.652 65.207,269.833 65.566,269.833 65.656 C 269.833 65.745,270.006 65.991,270.216 66.201 C 270.427 66.412,270.645 66.703,270.700 66.847 C 270.843 67.218,272.840 68.934,273.292 69.073 C 273.498 69.137,273.667 69.248,273.667 69.319 C 273.667 70.067,278.951 71.048,280.750 70.635 C 282.646 70.199,283.606 69.876,284.295 69.441 C 284.679 69.198,285.057 69.000,285.134 69.000 C 285.595 69.000,288.291 66.004,288.563 65.189 C 288.644 64.948,288.825 64.619,288.964 64.458 C 289.104 64.298,289.160 64.167,289.089 64.167 C 289.017 64.167,289.055 64.051,289.172 63.910 C 289.842 63.103,290.003 58.835,289.430 57.083 C 289.400 56.992,289.367 56.860,289.356 56.791 C 289.141 55.402,285.590 51.052,284.980 51.429 C 284.899 51.479,284.833 51.448,284.833 51.360 C 284.833 51.147,283.679 50.473,283.502 50.582 C 283.426 50.629,282.963 50.465,282.473 50.217 C 281.525 49.736,278.150 49.494,276.893 49.816 M300.093 50.250 C 299.457 50.571,298.886 50.915,298.824 51.015 C 298.762 51.115,298.533 51.290,298.314 51.404 C 298.096 51.517,297.935 51.698,297.958 51.805 C 297.981 51.912,297.939 52.000,297.865 52.000 C 297.790 52.000,297.565 52.153,297.365 52.340 L 297.000 52.680 297.000 51.548 L 297.000 50.417 294.166 50.466 L 291.331 50.515 291.374 60.216 L 291.417 69.917 294.208 69.962 L 297.000 70.008 297.000 63.910 C 297.000 59.743,297.059 57.696,297.186 57.447 C 297.430 56.971,298.499 56.000,298.780 56.000 C 298.901 56.000,299.000 55.913,299.000 55.806 C 299.000 55.699,299.047 55.658,299.104 55.716 C 299.162 55.773,299.437 55.702,299.716 55.558 C 300.825 54.984,303.141 54.893,303.904 55.393 C 304.156 55.558,304.383 55.669,304.409 55.638 C 304.537 55.488,305.324 52.153,305.386 51.500 C 305.425 51.087,305.511 50.622,305.577 50.465 C 305.670 50.245,305.590 50.158,305.223 50.079 C 304.963 50.023,304.578 49.907,304.367 49.822 C 303.395 49.428,301.312 49.637,300.093 50.250 M312.167 49.849 C 311.938 49.947,311.637 50.053,311.500 50.085 C 310.892 50.223,309.774 50.686,309.364 50.969 C 309.118 51.140,308.785 51.326,308.625 51.384 C 308.465 51.442,308.333 51.604,308.333 51.745 C 308.333 51.885,308.230 52.000,308.103 52.000 C 307.823 52.000,306.334 53.503,306.333 53.785 C 306.333 53.896,306.181 54.129,305.996 54.302 C 305.810 54.475,305.382 55.284,305.044 56.100 L 304.430 57.583 304.439 60.250 L 304.447 62.917 305.140 64.465 C 305.913 66.193,305.949 66.249,306.995 67.310 C 307.406 67.725,307.631 68.010,307.495 67.942 C 307.360 67.874,307.435 67.953,307.661 68.117 C 307.886 68.282,308.184 68.548,308.323 68.708 C 308.461 68.869,308.637 69.000,308.715 69.000 C 308.792 69.000,309.101 69.187,309.401 69.416 C 309.701 69.645,309.996 69.782,310.056 69.721 C 310.117 69.661,310.167 69.702,310.167 69.813 C 310.167 69.924,310.260 70.000,310.375 69.982 C 310.490 69.964,310.847 70.067,311.170 70.211 C 312.889 70.978,317.333 70.806,317.333 69.972 C 317.333 69.902,317.435 69.883,317.560 69.931 C 317.685 69.979,318.003 69.837,318.268 69.617 C 319.269 68.785,319.500 68.746,319.500 69.411 L 319.500 70.000 322.333 70.000 L 325.167 70.000 325.167 60.208 L 325.167 50.417 322.333 50.417 L 319.500 50.417 319.500 50.974 L 319.500 51.531 318.958 51.188 C 316.854 49.858,313.628 49.222,312.167 49.849 M358.250 49.743 C 358.158 49.778,357.521 49.971,356.833 50.171 C 355.644 50.518,355.315 50.683,353.740 51.722 C 352.981 52.222,351.333 53.899,351.333 54.171 C 351.333 54.268,351.143 54.551,350.911 54.799 C 350.679 55.047,350.448 55.438,350.398 55.667 C 350.347 55.896,350.262 56.196,350.210 56.333 C 350.157 56.471,350.126 56.640,350.140 56.708 C 350.155 56.777,350.101 56.833,350.020 56.833 C 348.934 56.833,349.571 64.361,350.732 65.250 C 350.852 65.342,350.943 65.454,350.934 65.500 C 350.896 65.696,351.682 66.850,351.913 66.938 C 352.053 66.992,352.167 67.128,352.167 67.242 C 352.167 67.500,353.640 68.754,354.275 69.037 C 354.536 69.153,354.889 69.374,355.060 69.528 C 355.230 69.683,355.755 69.899,356.227 70.010 C 356.698 70.120,357.162 70.273,357.259 70.349 C 357.356 70.425,357.990 70.573,358.667 70.678 C 359.774 70.850,360.267 70.839,362.111 70.603 C 364.710 70.271,367.809 68.184,369.391 65.702 C 371.484 62.418,371.453 57.816,369.316 54.561 C 368.682 53.595,367.010 51.833,366.727 51.833 C 366.618 51.833,366.503 51.776,366.472 51.705 C 366.366 51.461,364.691 50.482,364.238 50.400 C 363.987 50.355,363.655 50.250,363.500 50.167 C 362.899 49.845,358.839 49.517,358.250 49.743 M381.667 49.816 C 380.761 50.116,379.628 50.733,379.446 51.025 C 379.340 51.195,379.182 51.333,379.094 51.333 C 379.007 51.333,378.725 51.535,378.467 51.781 L 378.000 52.229 378.000 51.323 L 378.000 50.417 375.208 50.453 L 372.417 50.489 372.374 60.245 L 372.331 70.000 375.165 70.000 L 378.000 70.000 378.007 64.292 C 378.014 58.076,378.071 57.635,379.002 56.565 C 380.808 54.490,383.362 54.615,384.865 56.853 C 385.618 57.974,385.665 58.415,385.666 64.375 L 385.667 70.000 388.507 70.000 L 391.347 70.000 391.296 63.125 C 391.247 56.488,391.232 56.213,390.869 55.176 C 390.348 53.688,388.751 51.333,388.262 51.333 C 388.190 51.333,387.909 51.146,387.636 50.917 C 387.364 50.688,387.039 50.500,386.913 50.500 C 386.788 50.500,386.402 50.333,386.055 50.128 C 385.373 49.725,382.545 49.524,381.667 49.816 M342.333 60.208 L 342.333 70.000 345.167 70.000 L 348.000 70.000 348.000 60.208 L 348.000 50.417 345.167 50.417 L 342.334 50.417 342.333 60.208 M199.183 55.791 C 200.229 56.479,201.311 57.754,201.437 58.448 C 201.480 58.688,201.582 59.008,201.663 59.159 C 201.933 59.664,201.721 61.432,201.281 62.340 C 199.510 65.997,194.905 66.316,192.585 62.942 L 191.917 61.969 191.938 60.276 C 191.963 58.322,191.982 58.219,192.422 57.685 C 193.441 56.447,193.759 56.136,194.349 55.805 C 194.707 55.603,195.000 55.365,195.000 55.275 C 195.000 55.185,195.042 55.153,195.094 55.205 C 195.146 55.257,195.389 55.233,195.636 55.153 C 196.610 54.837,198.152 55.114,199.183 55.791 M235.808 55.514 C 239.565 57.391,240.047 62.225,236.693 64.390 C 236.174 64.725,235.656 64.999,235.542 64.999 C 235.427 65.000,235.333 65.063,235.333 65.139 C 235.333 65.216,234.884 65.295,234.335 65.315 C 232.641 65.376,231.151 64.528,230.017 62.859 L 229.366 61.900 229.404 59.992 C 229.439 58.243,229.476 58.044,229.846 57.608 C 230.068 57.346,230.438 56.910,230.668 56.638 C 231.955 55.115,234.080 54.650,235.808 55.514 M259.205 55.605 C 259.688 55.860,260.281 56.273,260.523 56.524 C 261.052 57.073,261.726 58.000,261.596 58.000 C 261.545 58.000,261.623 58.301,261.770 58.668 C 262.266 59.907,261.473 63.806,260.754 63.665 C 260.683 63.651,260.497 63.833,260.341 64.071 C 260.186 64.308,260.012 64.456,259.955 64.399 C 259.898 64.342,259.649 64.454,259.403 64.648 C 259.157 64.841,258.853 65.000,258.728 65.000 C 258.602 65.000,258.500 65.068,258.500 65.151 C 258.500 65.234,257.919 65.286,257.208 65.266 C 254.007 65.178,251.646 61.954,252.568 58.930 C 252.705 58.479,252.772 58.036,252.717 57.946 C 252.660 57.854,252.700 57.834,252.808 57.901 C 252.917 57.969,253.000 57.921,253.000 57.790 C 253.000 57.449,254.084 56.245,254.775 55.818 C 256.308 54.870,257.685 54.804,259.205 55.605 M280.500 55.210 C 280.813 55.278,282.667 56.510,282.667 56.650 C 282.667 56.707,282.844 56.944,283.060 57.178 C 283.876 58.058,284.591 61.497,283.958 61.500 C 283.890 61.500,283.833 61.638,283.833 61.806 C 283.833 62.105,282.586 64.034,282.328 64.134 C 282.256 64.162,281.835 64.424,281.393 64.717 C 278.933 66.346,275.074 64.607,274.257 61.500 C 273.290 57.822,276.704 54.383,280.500 55.210 M316.598 55.502 C 318.835 56.641,320.224 59.040,319.686 60.834 C 319.584 61.176,319.500 61.591,319.500 61.757 C 319.500 63.277,316.390 65.477,314.500 65.296 C 313.421 65.192,311.029 63.804,311.006 63.268 C 311.003 63.187,310.787 62.774,310.528 62.352 C 309.487 60.658,310.085 57.660,311.713 56.410 C 312.066 56.139,312.483 55.803,312.639 55.664 C 313.480 54.914,315.298 54.839,316.598 55.502 M361.941 55.367 C 362.203 55.482,362.472 55.653,362.539 55.747 C 362.606 55.840,362.663 55.849,362.664 55.766 C 362.666 55.683,362.925 55.881,363.240 56.206 C 363.556 56.531,363.847 56.764,363.887 56.724 C 364.151 56.460,365.241 59.320,365.231 60.250 C 365.193 64.026,360.274 66.823,357.654 64.561 C 357.509 64.436,357.265 64.333,357.112 64.333 C 356.959 64.333,356.833 64.234,356.833 64.113 C 356.833 63.992,356.646 63.730,356.417 63.531 C 356.188 63.332,356.000 63.091,356.000 62.995 C 356.000 62.900,355.871 62.625,355.714 62.386 C 355.202 61.604,355.026 59.943,355.346 58.928 C 355.464 58.555,355.547 58.194,355.530 58.125 C 355.514 58.056,355.587 58.000,355.694 58.000 C 355.801 58.000,355.843 57.955,355.788 57.899 C 355.674 57.785,355.743 57.689,356.623 56.740 C 358.084 55.165,360.225 54.612,361.941 55.367 M165.145 82.708 C 165.134 82.823,165.099 83.067,165.068 83.250 C 165.037 83.433,164.982 83.883,164.945 84.250 C 164.908 84.617,164.833 85.029,164.777 85.167 C 164.596 85.610,164.030 88.403,164.033 88.833 C 164.035 89.063,163.919 89.700,163.776 90.250 C 163.633 90.800,163.473 91.501,163.420 91.807 C 163.367 92.113,163.307 92.451,163.287 92.557 C 163.266 92.663,163.443 92.772,163.678 92.800 C 164.135 92.853,164.451 91.849,164.839 89.124 C 165.201 86.575,165.855 84.356,166.159 84.644 C 166.318 84.794,166.421 84.967,166.389 85.028 C 166.357 85.090,166.425 85.241,166.540 85.366 C 166.656 85.490,166.763 85.665,166.778 85.756 C 166.844 86.137,169.378 90.667,169.525 90.667 C 169.614 90.667,169.644 90.735,169.593 90.818 C 169.370 91.179,170.554 92.833,171.035 92.833 C 171.457 92.833,171.500 92.779,171.500 92.236 C 171.500 91.908,171.657 91.026,171.848 90.278 C 172.040 89.529,172.224 88.579,172.258 88.167 C 172.318 87.427,172.621 85.971,173.092 84.156 C 173.456 82.755,173.422 82.500,172.869 82.500 C 172.464 82.500,172.399 82.570,172.364 83.042 C 172.342 83.340,172.173 84.220,171.989 84.997 C 171.805 85.775,171.575 86.937,171.477 87.581 C 171.283 88.865,171.264 88.965,170.944 90.417 C 170.739 91.349,170.715 91.383,170.600 90.917 C 170.532 90.642,170.266 90.079,170.010 89.667 C 169.753 89.254,169.328 88.504,169.065 88.000 C 168.801 87.496,168.547 87.046,168.500 87.000 C 168.453 86.954,168.193 86.454,167.921 85.888 C 167.649 85.322,167.357 84.902,167.271 84.955 C 167.185 85.008,167.165 84.971,167.226 84.873 C 167.287 84.774,167.227 84.584,167.093 84.450 C 166.959 84.316,166.896 84.160,166.952 84.103 C 167.009 84.046,166.968 84.000,166.861 84.000 C 166.754 84.000,166.667 83.846,166.667 83.657 C 166.667 83.437,166.596 83.357,166.472 83.434 C 166.343 83.514,166.311 83.466,166.377 83.293 C 166.433 83.147,166.348 82.914,166.184 82.766 C 165.835 82.450,165.176 82.413,165.145 82.708 M238.861 82.792 C 238.725 83.055,238.452 84.164,238.421 84.583 C 238.414 84.675,238.360 84.826,238.302 84.919 C 238.243 85.012,238.115 85.662,238.018 86.364 C 237.920 87.065,237.655 88.423,237.429 89.381 C 237.203 90.339,237.026 91.264,237.036 91.436 C 237.046 91.609,236.999 91.993,236.931 92.291 C 236.815 92.798,236.834 92.830,237.237 92.796 C 237.709 92.757,237.835 92.510,237.912 91.481 C 238.057 89.537,238.866 86.881,239.399 86.596 C 239.684 86.444,240.104 86.211,240.333 86.079 C 240.866 85.771,241.990 85.774,242.399 86.083 C 242.756 86.353,242.676 88.844,242.279 89.833 C 242.137 90.188,241.667 92.306,241.667 92.594 C 241.667 92.749,241.843 92.833,242.167 92.833 C 242.630 92.833,242.667 92.789,242.667 92.232 C 242.667 91.902,242.784 91.178,242.928 90.624 C 243.338 89.039,243.389 88.675,243.403 87.174 L 243.417 85.765 242.850 85.382 C 242.032 84.830,239.667 85.054,239.667 85.685 C 239.667 85.766,239.517 85.833,239.333 85.833 C 238.932 85.833,238.932 85.917,239.333 84.167 C 239.512 83.387,239.660 82.694,239.662 82.625 C 239.671 82.371,239.007 82.510,238.861 82.792 M258.646 82.917 C 258.634 83.146,258.612 83.390,258.596 83.458 C 258.532 83.735,258.265 85.261,258.253 85.417 C 258.247 85.508,258.197 85.658,258.142 85.750 C 258.088 85.842,257.954 86.442,257.845 87.083 C 257.736 87.725,257.436 89.225,257.179 90.417 C 256.922 91.608,256.763 92.641,256.826 92.712 C 257.152 93.078,263.248 92.761,263.303 92.375 L 263.357 92.000 260.581 92.000 L 257.806 92.000 257.894 91.458 C 257.942 91.160,258.095 90.467,258.235 89.917 C 258.374 89.367,258.491 88.673,258.494 88.375 L 258.500 87.833 261.313 87.833 L 264.125 87.833 264.125 87.417 L 264.125 87.000 261.479 87.000 C 259.897 87.000,258.833 86.936,258.833 86.840 C 258.833 86.752,258.987 86.020,259.175 85.215 C 259.363 84.409,259.482 83.615,259.439 83.451 C 259.366 83.171,259.541 83.155,262.264 83.201 L 265.167 83.250 265.167 82.875 L 265.167 82.500 261.917 82.500 L 258.667 82.500 258.646 82.917 M282.087 83.115 C 282.033 83.464,281.877 84.313,281.741 85.000 C 281.605 85.688,281.462 86.419,281.423 86.626 C 281.384 86.832,281.314 87.064,281.266 87.140 C 281.219 87.217,281.142 87.688,281.096 88.187 C 281.050 88.686,280.822 89.880,280.590 90.839 C 280.357 91.798,280.167 92.623,280.167 92.672 C 280.167 92.811,280.998 92.845,281.013 92.706 C 281.026 92.574,281.095 92.282,281.236 91.750 C 281.365 91.261,281.911 88.641,282.242 86.917 C 282.401 86.092,282.568 85.267,282.613 85.083 C 282.659 84.900,282.728 84.412,282.766 84.000 C 282.805 83.587,282.855 83.100,282.877 82.917 C 282.961 82.211,282.198 82.402,282.087 83.115 M313.899 83.875 C 314.023 85.344,314.043 85.541,314.440 89.000 C 314.582 90.237,314.715 91.456,314.736 91.708 C 314.758 91.960,314.788 92.317,314.804 92.500 C 314.840 92.907,315.667 92.987,315.667 92.583 C 315.667 92.446,315.737 92.333,315.822 92.333 C 315.968 92.333,316.168 91.910,316.159 91.619 C 316.157 91.547,316.274 91.369,316.420 91.223 C 316.566 91.077,316.646 90.854,316.598 90.729 C 316.550 90.603,316.578 90.500,316.661 90.500 C 316.744 90.500,316.907 90.237,317.023 89.917 C 317.139 89.596,317.302 89.333,317.386 89.333 C 317.470 89.333,317.501 89.188,317.455 89.011 C 317.408 88.833,317.456 88.654,317.560 88.611 C 317.665 88.569,317.924 88.170,318.136 87.725 C 318.348 87.281,318.745 86.484,319.019 85.956 C 319.292 85.427,319.471 84.921,319.415 84.831 C 319.359 84.740,319.389 84.667,319.480 84.667 C 319.749 84.667,319.825 84.901,319.920 86.023 C 319.969 86.606,320.040 87.308,320.078 87.583 C 320.179 88.315,320.373 90.610,320.425 91.667 C 320.449 92.171,320.476 92.640,320.485 92.708 C 320.493 92.777,320.684 92.833,320.910 92.833 C 321.354 92.833,322.293 91.507,322.086 91.172 C 322.028 91.077,322.048 91.000,322.130 91.000 C 322.295 91.000,323.167 89.480,323.167 89.193 C 323.167 89.095,323.392 88.633,323.667 88.167 C 323.942 87.700,324.167 87.172,324.167 86.993 C 324.167 86.813,324.233 86.667,324.313 86.667 C 324.449 86.667,324.876 85.803,324.935 85.410 C 324.949 85.314,325.189 84.864,325.468 84.410 C 326.157 83.288,326.234 82.583,325.667 82.583 C 325.366 82.583,325.257 82.668,325.275 82.886 C 325.289 83.053,325.261 83.149,325.212 83.101 C 325.118 83.007,324.888 83.452,323.367 86.667 C 322.825 87.813,322.332 88.956,322.271 89.208 C 322.210 89.460,322.096 89.667,322.017 89.667 C 321.938 89.667,321.779 89.896,321.663 90.176 C 321.365 90.895,321.202 90.610,321.087 89.167 C 321.032 88.479,320.956 87.692,320.917 87.417 C 320.856 86.977,320.709 85.583,320.591 84.333 C 320.570 84.104,320.540 83.598,320.526 83.208 C 320.481 81.979,319.741 82.193,319.049 83.635 C 317.560 86.743,317.100 87.761,317.132 87.875 C 317.151 87.944,317.097 88.000,317.013 88.000 C 316.928 88.000,316.770 88.272,316.660 88.604 C 316.393 89.414,315.502 91.092,315.490 90.809 C 315.479 90.549,315.423 89.980,315.081 86.713 C 314.945 85.409,314.833 83.928,314.833 83.421 L 314.833 82.500 314.309 82.500 L 313.784 82.500 313.899 83.875 M339.689 82.792 C 339.521 83.106,339.386 83.721,339.167 85.167 C 339.090 85.671,338.837 86.908,338.604 87.917 C 338.372 88.925,338.184 89.900,338.187 90.083 C 338.194 90.538,338.082 91.230,337.970 91.424 C 337.610 92.043,337.672 92.767,338.085 92.767 C 338.517 92.767,338.560 92.680,338.931 91.083 C 339.206 89.899,340.499 89.222,340.987 90.007 C 341.821 91.349,342.399 92.167,342.514 92.167 C 342.585 92.167,342.692 92.317,342.750 92.500 C 342.902 92.979,343.833 92.974,343.833 92.495 C 343.833 92.309,343.728 92.116,343.600 92.067 C 343.471 92.017,343.323 91.851,343.271 91.697 C 343.149 91.337,342.866 90.897,342.286 90.167 C 341.547 89.238,341.032 88.397,341.304 88.565 C 341.457 88.660,342.048 88.233,342.953 87.375 C 343.171 87.169,343.416 87.000,343.499 87.000 C 343.582 87.000,343.717 86.881,343.798 86.735 C 343.880 86.589,343.977 86.495,344.015 86.525 C 344.141 86.627,345.333 85.586,345.333 85.375 C 345.333 85.045,344.434 85.132,344.038 85.500 C 343.842 85.683,343.638 85.833,343.585 85.833 C 343.533 85.833,343.004 86.246,342.409 86.750 C 341.815 87.254,341.250 87.667,341.155 87.667 C 341.059 87.667,341.027 87.742,341.083 87.833 C 341.140 87.925,341.102 88.000,341.000 88.000 C 340.897 88.000,340.469 88.263,340.047 88.585 C 339.138 89.280,339.138 89.280,339.357 88.329 C 339.451 87.919,339.551 87.471,339.580 87.333 C 339.608 87.195,339.705 86.782,339.794 86.416 C 339.883 86.050,339.967 85.505,339.981 85.205 C 339.994 84.906,340.115 84.240,340.249 83.726 C 340.383 83.211,340.453 82.725,340.403 82.645 C 340.253 82.401,339.854 82.483,339.689 82.792 M355.167 82.902 C 355.167 83.123,354.984 84.076,354.761 85.019 C 354.538 85.963,354.389 86.789,354.431 86.856 C 354.472 86.923,354.429 87.024,354.336 87.082 C 354.243 87.139,354.166 87.463,354.165 87.802 C 354.164 88.140,353.939 89.354,353.667 90.500 C 353.394 91.646,353.170 92.624,353.169 92.673 C 353.158 93.147,354.170 92.773,354.192 92.294 C 354.216 91.775,354.245 91.571,354.335 91.292 C 354.384 91.139,354.370 91.198,354.706 89.667 C 354.856 88.979,355.019 88.079,355.067 87.667 C 355.115 87.254,355.232 86.648,355.327 86.320 C 355.422 85.992,355.532 85.505,355.571 85.237 C 355.609 84.969,355.694 84.563,355.759 84.333 C 356.107 83.097,356.056 82.500,355.600 82.500 C 355.253 82.500,355.167 82.580,355.167 82.902 M189.597 83.386 C 189.137 83.723,189.322 84.250,189.901 84.250 C 190.432 84.250,190.776 83.859,190.615 83.439 C 190.489 83.111,190.008 83.085,189.597 83.386 M212.007 83.409 C 211.683 83.798,211.868 84.244,212.376 84.303 C 212.839 84.356,213.308 83.697,213.075 83.319 C 212.928 83.081,212.230 83.140,212.007 83.409 M291.653 83.434 C 291.373 83.770,291.546 84.244,291.969 84.304 C 292.464 84.375,292.793 84.095,292.769 83.624 C 292.747 83.191,291.964 83.058,291.653 83.434 M208.426 83.958 C 208.222 85.109,208.182 85.167,207.572 85.167 C 207.073 85.167,207.000 85.220,207.000 85.583 C 207.000 85.939,207.076 86.000,207.523 86.000 L 208.045 86.000 207.924 86.792 C 207.745 87.966,207.704 88.165,207.439 89.167 C 206.739 91.816,206.948 93.000,208.117 93.000 C 208.706 93.000,209.667 92.596,209.667 92.349 C 209.667 91.930,209.141 91.777,208.664 92.058 C 208.121 92.379,207.772 92.071,207.922 91.402 C 207.961 91.227,208.028 90.746,208.070 90.333 C 208.112 89.921,208.298 88.983,208.484 88.250 C 208.670 87.517,208.825 86.710,208.828 86.458 C 208.833 86.022,209.444 85.833,210.375 85.980 C 210.444 85.991,210.500 85.813,210.500 85.583 C 210.500 85.202,210.438 85.167,209.762 85.167 L 209.023 85.167 209.178 84.626 C 209.448 83.685,209.382 83.333,208.935 83.333 C 208.606 83.333,208.518 83.441,208.426 83.958 M234.926 83.958 C 234.718 85.132,234.691 85.167,233.989 85.167 C 233.401 85.167,233.333 85.210,233.333 85.583 C 233.333 85.946,233.407 86.000,233.899 86.000 L 234.465 86.000 234.330 86.625 C 234.257 86.969,234.156 87.625,234.108 88.083 C 234.059 88.542,233.866 89.517,233.678 90.250 C 233.246 91.934,233.249 92.058,233.727 92.575 C 234.337 93.232,235.995 93.022,235.999 92.286 C 236.000 91.945,235.520 91.699,235.358 91.959 C 235.251 92.132,234.926 92.224,234.559 92.186 C 234.233 92.153,234.181 91.728,234.401 90.890 C 234.517 90.446,234.580 89.987,234.541 89.869 C 234.501 89.752,234.542 89.564,234.633 89.453 C 234.829 89.211,235.145 87.698,235.206 86.709 L 235.250 86.000 236.125 86.000 C 236.947 86.000,237.000 85.975,237.000 85.583 C 237.000 85.202,236.938 85.167,236.262 85.167 L 235.523 85.167 235.678 84.626 C 235.948 83.685,235.882 83.333,235.435 83.333 C 235.106 83.333,235.018 83.441,234.926 83.958 M176.667 85.136 C 175.987 85.324,174.824 85.996,174.723 86.260 C 174.419 87.054,175.401 87.000,176.287 86.174 C 176.961 85.546,178.837 85.860,179.040 86.635 C 179.085 86.809,179.086 87.328,179.042 87.790 L 178.961 88.630 178.356 88.217 C 176.212 86.755,172.705 89.174,173.495 91.569 C 173.656 92.055,174.369 92.767,174.556 92.628 C 174.589 92.603,174.721 92.665,174.849 92.765 C 175.153 93.002,176.688 93.068,176.822 92.851 C 176.950 92.644,178.000 92.446,178.000 92.629 C 178.000 92.702,178.225 92.780,178.500 92.801 C 178.898 92.831,179.000 92.772,179.000 92.513 C 179.000 92.334,179.147 91.571,179.327 90.818 C 179.507 90.065,179.618 89.390,179.574 89.319 C 179.531 89.248,179.568 89.144,179.659 89.088 C 179.749 89.033,179.814 88.746,179.803 88.452 C 179.792 88.157,179.838 87.745,179.905 87.535 C 180.425 85.902,178.650 84.587,176.667 85.136 M194.100 85.246 C 193.742 85.374,193.405 85.539,193.350 85.614 C 193.295 85.689,193.100 85.830,192.917 85.929 C 191.590 86.640,190.493 90.802,191.394 91.704 C 191.535 91.845,191.611 92.000,191.562 92.049 C 191.514 92.097,191.805 92.331,192.210 92.569 C 193.155 93.122,194.412 93.153,195.456 92.648 C 196.374 92.203,196.440 92.278,196.002 93.275 C 195.288 94.899,193.112 95.518,191.849 94.456 C 191.275 93.972,191.180 93.941,190.764 94.101 C 189.725 94.500,191.330 95.568,193.070 95.636 C 195.742 95.741,196.841 94.654,197.422 91.333 C 197.574 90.462,197.886 88.903,198.114 87.867 C 198.342 86.831,198.486 85.871,198.433 85.733 C 198.373 85.575,198.406 85.525,198.524 85.598 C 198.636 85.667,198.680 85.621,198.634 85.482 C 198.483 85.022,197.667 85.094,197.667 85.567 C 197.667 86.037,197.342 86.007,196.780 85.485 C 196.230 84.974,195.136 84.877,194.100 85.246 M202.333 85.158 C 200.900 85.605,200.024 86.519,200.656 86.910 C 200.822 87.013,202.376 86.098,202.250 85.972 C 202.209 85.931,202.490 85.879,202.875 85.857 C 203.259 85.834,203.605 85.784,203.643 85.746 C 203.756 85.633,204.653 86.330,204.837 86.674 C 204.954 86.893,204.948 87.226,204.817 87.746 C 204.603 88.594,204.571 88.616,204.121 88.208 C 203.686 87.815,201.239 87.782,200.996 88.167 C 200.910 88.304,200.837 88.357,200.836 88.283 C 200.834 88.210,200.581 88.342,200.272 88.578 C 199.360 89.273,198.885 91.445,199.552 91.869 C 199.661 91.938,199.675 91.996,199.583 91.998 C 199.306 92.002,200.367 92.836,200.784 92.940 C 201.354 93.083,202.677 92.901,203.249 92.601 C 203.629 92.401,203.768 92.388,203.832 92.545 C 203.928 92.777,204.660 92.927,204.679 92.719 C 204.686 92.644,204.722 92.471,204.759 92.333 C 205.126 90.957,205.721 87.581,205.721 86.876 C 205.720 85.457,204.067 84.619,202.333 85.158 M216.570 85.416 C 215.579 85.919,215.500 85.925,215.500 85.502 C 215.500 84.731,214.686 85.166,214.579 85.994 C 214.526 86.410,214.302 87.612,214.082 88.667 C 213.862 89.721,213.644 90.921,213.599 91.333 C 213.554 91.746,213.467 92.252,213.406 92.458 C 213.311 92.779,213.357 92.833,213.723 92.833 C 214.195 92.833,214.488 92.149,214.508 91.000 C 214.514 90.679,214.721 89.634,214.968 88.677 L 215.417 86.938 216.221 86.447 C 217.380 85.740,218.346 85.664,218.918 86.236 C 219.447 86.765,219.414 87.246,218.643 90.318 C 218.197 92.098,218.221 92.833,218.727 92.833 C 219.084 92.833,219.129 92.744,219.218 91.875 C 219.271 91.348,219.355 90.767,219.404 90.583 C 220.289 87.287,220.371 86.229,219.779 85.738 C 218.725 84.863,217.836 84.773,216.570 85.416 M224.252 85.244 C 223.886 85.378,223.561 85.566,223.530 85.661 C 223.498 85.756,223.381 85.833,223.269 85.833 C 222.493 85.833,221.299 88.110,221.205 89.766 C 221.053 92.462,223.311 93.872,225.725 92.588 C 226.151 92.361,226.500 92.254,226.500 92.348 C 226.500 92.745,225.623 94.333,225.405 94.333 C 225.274 94.333,225.167 94.421,225.167 94.528 C 225.167 94.635,225.117 94.673,225.057 94.613 C 224.997 94.552,224.840 94.592,224.708 94.701 C 224.262 95.072,221.676 94.889,221.915 94.503 C 222.055 94.276,221.371 93.965,220.994 94.085 C 220.481 94.248,220.607 94.621,221.358 95.166 C 222.978 96.339,225.988 95.629,226.845 93.871 C 227.244 93.053,227.744 91.102,227.646 90.742 C 227.622 90.655,227.803 89.721,228.048 88.667 C 228.664 86.017,228.700 85.256,228.208 85.231 C 228.002 85.221,227.832 85.258,227.831 85.314 C 227.820 85.754,227.520 85.854,227.079 85.565 C 226.267 85.033,225.168 84.908,224.252 85.244 M247.550 85.502 C 246.975 85.782,246.476 86.146,246.419 86.327 C 246.362 86.504,246.184 86.692,246.022 86.743 C 245.559 86.890,244.950 88.445,244.878 89.667 C 244.718 92.364,247.099 93.771,249.830 92.593 C 250.841 92.156,251.242 91.725,250.999 91.332 C 250.834 91.064,249.333 91.725,249.333 92.066 C 249.333 92.152,249.291 92.180,249.239 92.128 C 249.187 92.076,248.899 92.101,248.599 92.184 C 247.530 92.479,246.223 91.705,245.848 90.554 C 245.449 89.328,245.435 89.333,248.832 89.333 L 251.842 89.333 252.016 88.875 C 253.009 86.262,250.255 84.182,247.550 85.502 M275.667 85.105 C 273.758 85.855,273.031 86.541,272.495 88.097 C 272.072 89.329,272.183 91.667,272.666 91.667 C 272.738 91.667,272.786 91.795,272.773 91.952 C 272.760 92.114,272.893 92.266,273.079 92.305 C 273.260 92.342,273.495 92.491,273.601 92.635 C 273.853 92.981,276.000 93.151,276.000 92.825 C 276.000 92.707,276.049 92.660,276.110 92.721 C 276.170 92.781,276.320 92.747,276.443 92.645 C 276.566 92.543,276.667 92.508,276.667 92.567 C 276.667 92.776,277.588 92.195,278.003 91.725 C 278.836 90.782,279.144 90.220,279.231 89.482 C 279.279 89.069,279.366 88.609,279.423 88.459 C 279.747 87.615,278.546 85.079,277.986 85.426 C 277.918 85.468,277.835 85.423,277.803 85.326 C 277.737 85.128,276.052 84.954,275.667 85.105 M296.237 85.416 C 295.240 85.922,295.003 85.939,295.118 85.500 C 295.189 85.229,295.123 85.167,294.769 85.167 C 294.530 85.167,294.332 85.223,294.330 85.292 C 294.324 85.531,293.990 87.753,293.898 88.167 C 293.847 88.396,293.786 88.696,293.762 88.833 C 293.738 88.971,293.629 89.404,293.519 89.795 C 293.409 90.186,293.286 90.824,293.246 91.212 C 293.206 91.599,293.128 92.123,293.073 92.375 C 292.985 92.781,293.022 92.833,293.396 92.833 C 293.849 92.833,294.164 92.127,294.166 91.104 C 294.166 90.840,294.364 89.786,294.606 88.760 L 295.045 86.896 295.981 86.406 C 296.496 86.137,296.938 85.871,296.964 85.815 C 297.039 85.657,298.297 85.929,298.580 86.164 C 298.957 86.476,298.897 87.746,298.407 89.873 C 297.786 92.571,297.782 92.833,298.364 92.833 C 298.795 92.833,298.834 92.782,298.836 92.208 C 298.838 91.865,298.984 91.024,299.162 90.340 C 299.340 89.656,299.453 89.065,299.415 89.026 C 299.377 88.988,299.418 88.819,299.508 88.652 C 300.789 86.258,298.683 84.175,296.237 85.416 M304.083 85.202 C 303.808 85.298,303.465 85.480,303.320 85.605 C 303.175 85.731,302.965 85.833,302.852 85.833 C 302.739 85.833,302.688 85.900,302.739 85.982 C 302.789 86.063,302.643 86.253,302.414 86.403 C 302.039 86.649,301.783 87.098,301.190 88.550 C 300.651 89.871,301.183 92.128,302.132 92.545 C 302.380 92.654,302.631 92.810,302.689 92.892 C 302.888 93.172,305.180 92.935,305.359 92.615 C 305.448 92.456,305.591 92.370,305.677 92.423 C 305.763 92.476,305.833 92.453,305.833 92.371 C 305.833 92.289,305.946 92.222,306.083 92.222 C 306.372 92.222,306.389 92.331,306.187 92.864 C 306.106 93.076,306.031 93.306,306.020 93.375 C 305.938 93.888,304.371 94.893,303.544 94.962 C 302.812 95.024,301.333 94.482,301.333 94.152 C 301.333 93.961,300.989 93.959,300.690 94.148 C 300.316 94.386,300.629 94.947,301.346 95.320 C 302.748 96.051,306.021 95.508,306.285 94.500 C 306.333 94.317,306.428 94.167,306.497 94.167 C 306.697 94.167,307.153 92.822,307.261 91.917 C 307.315 91.458,307.533 90.258,307.745 89.250 C 308.579 85.282,308.586 85.167,308.008 85.167 C 307.688 85.167,307.432 85.588,307.593 85.848 C 307.644 85.932,307.611 86.000,307.520 86.000 C 307.428 86.000,307.302 85.917,307.239 85.816 C 306.853 85.191,305.091 84.848,304.083 85.202 M328.310 85.232 C 327.188 85.632,326.587 86.090,325.968 87.015 C 324.711 88.892,324.773 91.543,326.095 92.409 C 326.318 92.555,326.500 92.630,326.500 92.575 C 326.500 92.521,326.618 92.594,326.762 92.738 C 327.961 93.938,331.622 91.920,332.034 89.833 C 332.061 89.696,332.151 89.535,332.233 89.475 C 332.315 89.415,332.382 88.850,332.382 88.219 C 332.382 85.815,330.514 84.444,328.310 85.232 M337.000 85.157 C 336.771 85.227,336.321 85.445,336.000 85.642 C 335.260 86.095,335.203 86.090,335.258 85.583 C 335.296 85.241,335.232 85.167,334.902 85.167 C 334.560 85.167,334.500 85.247,334.499 85.708 C 334.499 86.006,334.425 86.514,334.335 86.836 C 334.246 87.159,334.143 87.646,334.108 87.920 C 334.073 88.193,334.002 88.529,333.952 88.667 C 333.826 89.007,333.544 90.419,333.420 91.333 C 333.363 91.746,333.275 92.252,333.224 92.458 C 333.145 92.774,333.198 92.833,333.559 92.833 C 334.059 92.833,334.233 92.356,334.498 90.263 C 334.874 87.301,335.762 86.000,337.408 86.000 C 337.786 86.000,338.000 85.724,338.000 85.236 C 338.000 84.981,337.660 84.954,337.000 85.157 M348.434 85.261 C 348.077 85.392,347.687 85.581,347.566 85.681 C 347.288 85.911,346.985 85.733,347.108 85.411 C 347.175 85.237,347.085 85.167,346.796 85.167 C 346.572 85.167,346.380 85.260,346.369 85.375 C 346.358 85.490,346.196 86.183,346.009 86.917 C 345.822 87.650,345.669 88.465,345.668 88.727 C 345.667 88.990,345.482 89.965,345.255 90.894 C 345.029 91.823,344.813 92.846,344.775 93.167 C 344.737 93.487,344.650 94.144,344.581 94.625 C 344.464 95.449,344.478 95.500,344.817 95.500 C 345.192 95.500,345.315 95.321,345.404 94.648 C 345.432 94.429,345.501 94.138,345.556 94.000 C 345.611 93.862,345.677 93.412,345.703 93.000 C 345.754 92.191,346.305 91.997,346.786 92.619 C 347.382 93.390,349.714 92.947,350.824 91.852 C 352.033 90.660,352.753 88.241,352.250 87.057 C 352.179 86.888,352.105 86.609,352.086 86.437 C 351.974 85.401,349.886 84.729,348.434 85.261 M359.333 85.136 C 358.010 85.502,357.112 86.283,357.490 86.738 C 357.705 86.997,357.987 86.895,358.945 86.208 C 360.299 85.238,361.894 86.022,361.742 87.583 C 361.716 87.858,361.688 88.212,361.680 88.370 C 361.668 88.618,361.583 88.599,361.042 88.230 C 358.880 86.756,355.367 89.160,356.162 91.569 C 356.322 92.055,357.036 92.767,357.223 92.628 C 357.255 92.603,357.387 92.665,357.516 92.765 C 357.819 93.002,359.355 93.068,359.489 92.851 C 359.617 92.644,360.667 92.446,360.667 92.629 C 360.667 93.129,361.668 92.803,361.692 92.294 C 361.722 91.649,361.748 91.498,361.887 91.167 C 362.072 90.722,362.315 89.438,362.237 89.312 C 362.195 89.245,362.235 89.144,362.325 89.088 C 362.416 89.033,362.481 88.746,362.470 88.452 C 362.459 88.157,362.505 87.745,362.572 87.535 C 363.092 85.902,361.316 84.587,359.333 85.136 M367.167 85.229 C 365.668 85.807,364.772 86.701,364.328 88.058 C 363.995 89.078,363.972 91.185,364.293 91.292 C 364.408 91.330,364.461 91.429,364.410 91.511 C 364.280 91.721,364.636 92.333,364.889 92.333 C 365.005 92.333,365.189 92.423,365.298 92.532 C 365.666 92.899,368.000 93.173,368.000 92.848 C 368.000 92.748,368.056 92.679,368.125 92.694 C 368.576 92.791,369.833 91.951,369.833 91.552 C 369.833 91.126,369.368 91.141,368.654 91.591 C 366.292 93.082,363.825 90.953,365.135 88.553 C 365.244 88.352,365.333 88.080,365.333 87.948 C 365.333 86.520,368.538 85.320,369.600 86.350 C 370.180 86.912,370.833 86.909,370.833 86.345 C 370.833 85.467,368.438 84.738,367.167 85.229 M374.000 85.463 C 372.126 86.393,371.265 87.779,371.256 89.881 C 371.253 90.595,371.327 91.232,371.420 91.298 C 371.514 91.363,371.672 91.605,371.773 91.834 C 372.448 93.376,377.500 93.147,377.500 91.575 C 377.500 91.328,376.984 91.100,376.847 91.286 C 376.722 91.455,375.557 92.000,374.927 92.185 C 374.261 92.380,373.294 92.068,372.726 91.475 C 372.244 90.972,372.148 90.728,372.108 89.917 L 372.083 89.417 375.292 89.371 L 378.500 89.326 378.500 88.155 C 378.500 85.513,376.413 84.264,374.000 85.463 M181.248 85.337 C 181.190 85.431,181.257 85.862,181.397 86.295 C 181.537 86.729,181.694 87.383,181.745 87.750 C 181.797 88.117,182.026 89.091,182.253 89.915 C 182.481 90.740,182.667 91.626,182.667 91.884 C 182.667 92.142,182.735 92.311,182.818 92.260 C 182.901 92.208,182.930 92.316,182.882 92.500 C 182.811 92.772,182.876 92.833,183.239 92.833 C 183.693 92.833,184.484 92.120,184.495 91.701 C 184.498 91.583,184.646 91.329,184.825 91.137 C 185.004 90.945,185.268 90.555,185.413 90.269 C 185.756 89.591,186.056 89.104,186.195 88.998 C 186.256 88.952,186.331 88.804,186.362 88.671 C 186.392 88.538,186.586 88.239,186.794 88.006 C 187.001 87.774,187.218 87.433,187.275 87.250 C 187.333 87.067,187.595 86.656,187.857 86.337 C 188.478 85.581,188.484 85.167,187.873 85.167 C 187.593 85.167,187.348 85.289,187.248 85.478 C 186.585 86.733,186.236 87.312,185.894 87.721 C 185.677 87.980,185.500 88.266,185.500 88.357 C 185.500 88.448,185.313 88.768,185.083 89.069 C 184.854 89.369,184.667 89.670,184.667 89.738 C 184.667 89.807,184.427 90.195,184.135 90.602 L 183.604 91.342 183.141 89.713 C 182.887 88.817,182.676 87.875,182.673 87.620 C 182.669 87.365,182.557 86.895,182.424 86.575 C 182.158 85.938,182.167 85.975,182.167 85.500 C 182.167 85.139,181.449 85.012,181.248 85.337 M189.236 85.792 C 189.109 86.490,189.131 86.392,188.682 88.325 C 188.502 89.099,188.384 89.780,188.419 89.837 C 188.455 89.895,188.380 90.349,188.253 90.846 C 187.812 92.574,187.813 92.833,188.253 92.833 C 188.481 92.833,188.681 92.712,188.732 92.542 C 188.889 92.023,189.031 91.272,189.168 90.250 C 189.241 89.700,189.496 88.444,189.734 87.460 C 190.270 85.242,190.271 85.167,189.758 85.167 C 189.416 85.167,189.330 85.270,189.236 85.792 M211.721 85.708 C 211.708 86.006,211.654 86.400,211.603 86.583 C 211.288 87.707,211.010 89.024,210.915 89.837 C 210.878 90.160,210.733 90.910,210.593 91.504 C 210.268 92.883,210.262 92.833,210.742 92.833 C 211.143 92.833,211.630 91.846,211.408 91.485 C 211.364 91.414,211.401 91.311,211.491 91.256 C 211.581 91.200,211.648 90.833,211.640 90.440 C 211.632 90.047,211.675 89.568,211.736 89.376 C 211.797 89.184,211.882 88.871,211.924 88.680 C 211.966 88.489,212.037 88.183,212.083 88.000 C 212.129 87.817,212.198 87.526,212.236 87.354 C 212.275 87.182,212.387 86.751,212.485 86.396 C 212.772 85.364,212.727 85.167,212.206 85.167 C 211.803 85.167,211.743 85.234,211.721 85.708 M265.258 85.321 C 265.205 85.406,265.272 85.800,265.406 86.196 C 265.540 86.592,265.694 87.173,265.749 87.486 C 265.803 87.799,265.880 88.107,265.919 88.171 C 265.959 88.235,266.023 88.541,266.061 88.852 C 266.136 89.452,266.448 90.751,266.619 91.167 C 266.745 91.474,266.738 91.448,266.890 92.208 C 267.050 93.006,267.468 93.035,268.079 92.292 C 268.732 91.496,270.000 89.466,270.000 89.216 C 270.000 89.097,270.066 89.000,270.148 89.000 C 270.229 89.000,270.418 88.741,270.569 88.424 C 270.719 88.107,270.908 87.807,270.989 87.757 C 271.221 87.613,272.239 85.780,272.264 85.458 C 272.324 84.711,270.884 85.618,270.770 86.400 C 270.751 86.525,270.533 86.894,270.285 87.219 C 270.036 87.545,269.833 87.885,269.833 87.976 C 269.833 88.067,269.660 88.353,269.448 88.612 C 269.047 89.103,268.171 90.537,267.964 91.042 C 267.696 91.694,267.287 90.680,266.920 88.454 C 266.863 88.107,266.661 87.357,266.472 86.787 C 266.282 86.217,266.131 85.619,266.136 85.458 C 266.147 85.145,265.435 85.034,265.258 85.321 M283.559 85.419 C 283.506 85.557,283.531 85.764,283.615 85.877 C 283.699 85.991,283.787 86.346,283.811 86.667 C 283.835 86.987,284.071 88.075,284.334 89.083 C 284.598 90.092,284.899 91.348,285.002 91.875 C 285.242 93.096,286.624 93.117,286.661 91.901 C 286.664 91.800,286.824 91.537,287.016 91.317 C 287.209 91.097,287.514 90.654,287.694 90.333 C 287.874 90.013,288.186 89.479,288.386 89.148 C 288.586 88.817,288.969 88.180,289.236 87.732 C 289.503 87.283,289.858 86.763,290.025 86.575 C 290.552 85.982,290.622 85.167,290.146 85.167 C 289.762 85.167,289.660 85.296,288.577 87.166 C 288.482 87.330,288.322 87.566,288.221 87.691 C 288.121 87.815,287.835 88.310,287.585 88.792 C 287.336 89.273,287.070 89.667,286.994 89.667 C 286.918 89.667,286.804 89.830,286.740 90.030 C 286.677 90.230,286.409 90.691,286.146 91.055 L 285.667 91.717 285.647 91.150 C 285.636 90.838,285.638 90.522,285.651 90.447 C 285.664 90.372,285.509 89.772,285.308 89.114 C 285.106 88.455,284.917 87.729,284.888 87.500 C 284.624 85.413,283.961 84.374,283.559 85.419 M291.333 85.644 C 291.333 85.907,291.140 86.976,290.903 88.019 C 290.667 89.063,290.448 90.179,290.416 90.500 C 290.384 90.821,290.280 91.421,290.183 91.833 C 289.947 92.845,289.945 92.833,290.405 92.833 C 290.920 92.833,290.952 92.738,291.341 90.083 C 291.422 89.533,291.563 88.831,291.654 88.523 C 291.746 88.215,291.812 87.915,291.801 87.856 C 291.790 87.798,291.825 87.638,291.879 87.500 C 292.079 86.993,292.333 85.467,292.241 85.319 C 291.997 84.925,291.333 85.162,291.333 85.644 M250.000 85.946 C 250.000 85.313,251.157 87.053,251.199 87.750 L 251.250 88.583 248.606 88.629 C 246.129 88.672,245.969 88.657,246.080 88.379 C 246.145 88.217,246.215 87.990,246.234 87.876 C 246.405 86.871,249.075 85.382,249.792 85.893 C 249.906 85.974,250.000 85.998,250.000 85.946 M306.415 86.042 C 306.491 85.973,306.506 85.999,306.449 86.100 C 306.392 86.201,306.528 86.381,306.753 86.502 C 307.442 86.870,307.414 87.529,306.586 90.421 C 306.102 92.109,303.600 92.844,302.486 91.624 C 301.439 90.478,301.903 87.752,303.332 86.657 C 303.623 86.433,303.949 86.174,304.056 86.081 C 304.163 85.988,304.512 85.887,304.833 85.857 C 305.154 85.826,305.444 85.775,305.477 85.743 C 305.511 85.710,305.704 85.793,305.907 85.926 C 306.110 86.059,306.339 86.111,306.415 86.042 M351.111 86.646 C 351.732 87.233,351.488 89.728,350.717 90.680 C 349.551 92.117,348.566 92.528,347.465 92.035 C 346.177 91.459,346.064 91.214,346.389 89.702 C 346.542 88.991,346.667 88.228,346.667 88.007 C 346.667 87.341,347.302 86.612,348.225 86.217 C 349.684 85.593,350.056 85.648,351.111 86.646 M196.151 86.012 C 196.468 86.109,197.334 87.005,197.331 87.233 C 197.330 87.334,197.211 87.904,197.068 88.500 C 196.925 89.096,196.789 89.876,196.766 90.233 C 196.718 90.988,196.363 91.342,195.042 91.953 C 192.617 93.075,191.011 90.529,192.491 87.907 C 192.761 87.429,192.938 86.993,192.884 86.939 C 192.830 86.885,192.928 86.787,193.101 86.720 C 193.275 86.654,193.679 86.421,194.000 86.203 C 194.556 85.826,195.317 85.758,196.151 86.012 M226.566 86.249 C 227.624 86.967,227.626 86.970,227.399 87.844 C 227.287 88.275,227.173 88.843,227.146 89.105 C 227.118 89.368,227.050 89.658,226.994 89.750 C 226.938 89.842,226.877 90.179,226.858 90.500 C 226.838 90.821,226.749 91.109,226.658 91.140 C 226.568 91.171,226.383 91.308,226.247 91.443 C 226.111 91.579,225.998 91.629,225.995 91.554 C 225.992 91.478,225.879 91.562,225.745 91.740 C 225.610 91.918,225.500 92.016,225.500 91.957 C 225.500 91.898,225.225 91.965,224.890 92.105 C 223.437 92.712,222.078 91.665,222.091 89.949 C 222.114 87.117,224.697 84.981,226.566 86.249 M277.334 85.958 C 277.334 86.027,277.559 86.233,277.833 86.417 C 278.134 86.617,278.333 86.895,278.333 87.115 C 278.333 87.316,278.397 87.520,278.476 87.568 C 278.554 87.617,278.557 88.043,278.483 88.515 C 278.408 88.988,278.360 89.421,278.376 89.479 C 278.415 89.622,277.998 90.359,277.722 90.635 C 277.598 90.759,277.547 90.948,277.609 91.055 C 277.670 91.162,277.663 91.198,277.593 91.135 C 277.522 91.072,277.285 91.214,277.066 91.451 C 276.846 91.688,276.667 91.824,276.667 91.754 C 276.667 91.683,276.561 91.713,276.433 91.820 C 275.958 92.214,275.153 92.332,274.577 92.092 C 274.275 91.965,273.985 91.904,273.933 91.956 C 273.431 92.458,272.858 89.369,273.302 88.553 C 273.411 88.352,273.500 88.101,273.500 87.993 C 273.500 87.681,274.320 86.789,275.064 86.292 C 275.722 85.853,277.333 85.616,277.334 85.958 M330.190 86.013 C 332.736 87.375,331.225 91.846,328.087 92.235 C 327.186 92.347,326.008 91.206,325.981 90.195 C 325.971 89.813,325.957 89.369,325.949 89.208 C 325.942 89.048,326.065 88.673,326.222 88.375 C 326.380 88.077,326.452 87.833,326.384 87.833 C 326.315 87.833,326.426 87.717,326.630 87.574 C 326.833 87.431,327.000 87.204,327.000 87.069 C 327.000 86.933,327.131 86.773,327.292 86.711 C 327.452 86.650,327.838 86.427,328.148 86.216 C 328.753 85.806,329.639 85.718,330.190 86.013 M376.630 86.141 C 376.666 86.247,376.788 86.333,376.902 86.333 C 377.213 86.333,377.491 86.988,377.540 87.833 L 377.583 88.583 374.958 88.629 C 373.515 88.654,372.333 88.633,372.333 88.581 C 372.333 88.529,372.476 88.208,372.649 87.868 C 372.946 87.289,374.333 85.840,374.333 86.110 C 374.333 86.178,374.427 86.137,374.542 86.019 C 374.798 85.755,376.536 85.857,376.630 86.141 M203.417 88.708 C 204.145 89.255,204.324 89.485,204.393 89.958 C 204.436 90.256,204.418 90.500,204.354 90.500 C 204.290 90.500,204.225 90.668,204.210 90.873 C 204.194 91.077,204.094 91.274,203.987 91.310 C 203.879 91.346,203.651 91.516,203.479 91.688 C 203.307 91.859,203.167 91.960,203.167 91.911 C 203.167 91.862,203.012 91.904,202.823 92.006 C 201.252 92.846,199.703 91.613,200.364 90.050 C 200.841 88.921,202.645 88.129,203.417 88.708 M178.183 89.133 L 178.706 89.600 178.500 90.508 C 178.152 92.051,175.910 92.781,174.797 91.715 C 173.115 90.104,176.437 87.572,178.183 89.133 M360.850 89.133 L 361.372 89.600 361.167 90.508 C 360.689 92.622,356.944 92.841,357.033 90.750 C 357.107 89.011,359.553 87.975,360.850 89.133 " stroke="none" fill="#443c3c" fill-rule="evenodd"></path></g></svg>