<?xml version="1.0" standalone="no"?>
<!DOCTYPE svg PUBLIC "-//W3C//DTD SVG 1.1//EN" "http://www.w3.org/Graphics/SVG/1.1/DTD/svg11.dtd" >
<svg xmlns="http://www.w3.org/2000/svg" xmlns:xlink="http://www.w3.org/1999/xlink" version="1.1">
<metadata>
Created by FontForge 20170731 at Tue Mar 10 05:28:03 2020
 By Aleksey,,,
Copyright (c) 2020 by Runsell Studio. All rights reserved.
</metadata>
<defs>
<font id="Retroica" horiz-adv-x="666" >
  <font-face 
    font-family="Retroica"
    font-weight="400"
    font-stretch="normal"
    units-per-em="1000"
    panose-1="0 0 0 0 0 0 0 0 0 0"
    ascent="750"
    descent="-250"
    x-height="509"
    cap-height="700"
    bbox="-113 -270 1017 740"
    underline-thickness="50"
    underline-position="-150"
    unicode-range="U+000D-007A"
  />
<missing-glyph horiz-adv-x="288" 
 />
    <glyph glyph-name=".notdef" horiz-adv-x="288" 
 />
    <glyph glyph-name=".null" horiz-adv-x="0" 
 />
    <glyph glyph-name="nonmarkingreturn" unicode="&#xd;" horiz-adv-x="288" 
 />
    <glyph glyph-name="NULL" horiz-adv-x="0" 
 />
    <glyph glyph-name="NULL" horiz-adv-x="0" 
 />
    <glyph glyph-name="space" unicode=" " horiz-adv-x="288" 
 />
    <glyph glyph-name="comma" unicode="," horiz-adv-x="291" 
d="M234 73q0 -39 -27 -72t-79 -75l-38 38q10 8 21 17.5t12 17.5q-30 5 -48 25.5t-18 46.5q0 16 6.5 32t18.5 28t28 19.5t36 7.5q18 0 34 -7.5t28 -19.5t19 -27t7 -31z" />
    <glyph glyph-name="period" unicode="." horiz-adv-x="291" 
d="M145 -20q-37 0 -62.5 26t-25.5 63t25.5 63t62.5 26t63 -26t26 -63t-26 -63t-63 -26z" />
    <glyph glyph-name="zero" unicode="0" horiz-adv-x="749" 
d="M375 720q68 0 127 -29.5t103 -80t69.5 -117.5t25.5 -143q0 -77 -26 -144.5t-70 -117.5t-103 -79t-126 -29q-68 0 -127.5 29.5t-103.5 80t-69.5 117.5t-25.5 143q0 77 26 144.5t70.5 117.5t103.5 79t126 29zM375 120q40 0 72 19t54.5 50.5t35 73.5t12.5 87t-12.5 87
t-35 73.5t-54.5 50.5t-72 19t-72.5 -19t-55 -50.5t-34.5 -73.5t-12 -87t12 -87t34.5 -73.5t55 -50.5t72.5 -19z" />
    <glyph glyph-name="one" unicode="1" horiz-adv-x="420" 
d="M351 0h-150v537l-113 -54l-54 113l183 104h134v-700z" />
    <glyph glyph-name="two" unicode="2" horiz-adv-x="609" 
d="M560 513q0 -57 -25 -110t-62.5 -100.5t-81 -88.5t-81.5 -74h246v-140h-517v74q71 68 125.5 119.5t95 90.5t68 68.5t44 54.5t23.5 47.5t7 48.5q0 13 -6 26.5t-17.5 24.5t-29 18t-39.5 7q-52 0 -89 -28t-49 -68q-31 21 -57 39q-22 15 -42 28.5t-25 17.5q16 38 42.5 66.5
t60 47.5t72.5 28.5t80 9.5t86.5 -12t83.5 -37.5t62.5 -64.5t24.5 -93z" />
    <glyph glyph-name="three" unicode="3" horiz-adv-x="665" 
d="M497 370q28 -11 51.5 -24.5t40.5 -32.5t27 -44t10 -57q0 -59 -26.5 -102.5t-70 -72.5t-99 -43t-114.5 -14q-44 0 -87 9.5t-80.5 29t-67 49.5t-47.5 72q9 5 30.5 17.5t44.5 26.5q26 16 57 34q9 -18 24.5 -35.5t36 -31.5t45.5 -22.5t53 -8.5t53.5 5t45.5 16t32 28.5
t12 42.5q0 33 -22.5 50t-55 24.5t-69 8t-64.5 0.5v134q18 1 46.5 2.5t55.5 8t46.5 21t19.5 42.5q0 20 -10 34.5t-25 24t-33.5 14t-36.5 4.5q-29 0 -51.5 -9.5t-39 -24t-27 -30.5t-14.5 -29q-31 20 -57 37q-23 14 -43 27t-26 17q15 38 42.5 66.5t62.5 47.5t76 28.5t82 9.5
q39 0 84.5 -12t84 -36t64 -60.5t25.5 -85.5q0 -48 -23.5 -90.5t-62.5 -65.5z" />
    <glyph glyph-name="four" unicode="4" horiz-adv-x="657" 
d="M618 273v-136h-71v-136h-150v136h-358v136l365 427h143v-427h71zM397 490l-184 -217h184v217z" />
    <glyph glyph-name="five" unicode="5" horiz-adv-x="638" 
d="M301 -20q-41 0 -79.5 9t-72.5 28.5t-62.5 49.5t-47.5 72q8 5 30 18t45 27q26 16 57 34q9 -16 21.5 -33.5t29 -31.5t37 -23.5t44.5 -9.5q22 0 44.5 7.5t41 21.5t30 35t11.5 47q0 27 -11 48.5t-29 36t-41 22t-46 7.5q-36 0 -69.5 -18t-51.5 -48l-123 80l55 341h428v-140
h-299l-12 -80q13 2 31 3.5t59 1.5q52 0 100.5 -16t86 -48t59.5 -79.5t22 -110.5q0 -56 -23 -102t-62 -79t-91.5 -51.5t-111.5 -18.5z" />
    <glyph glyph-name="six" unicode="6" horiz-adv-x="674" 
d="M526 551q-19 8 -40.5 10t-33.5 2q-60 0 -103 -18.5t-70.5 -44t-41.5 -54t-17 -47.5q28 26 76.5 43.5t102.5 17.5q48 0 91 -15t75 -44.5t51 -72t19 -96.5q0 -52 -20.5 -97.5t-58 -80t-89.5 -54.5t-114 -20q-76 0 -133 24.5t-95 66.5t-57 98t-19 118q0 70 22.5 143.5
t70.5 133.5t123 98t181 38q45 0 71 -5.5t40 -9.5zM476 224q0 48 -39 74t-96 26q-25 0 -49 -6.5t-42.5 -19.5t-30 -31.5t-11.5 -42.5q1 -28 12 -47.5t30 -32t45 -18.5t56 -6q24 0 46.5 6.5t40 19t28 32t10.5 46.5z" />
    <glyph glyph-name="seven" unicode="7" horiz-adv-x="573" 
d="M539 569l-312 -569h-174l315 559h-329v141h500v-131z" />
    <glyph glyph-name="eight" unicode="8" horiz-adv-x="668" 
d="M39 197q0 57 30.5 101t76.5 73q-35 24 -58.5 63t-23.5 87q0 49 23 86t61 62t86 38t99 13q48 0 96.5 -12.5t87.5 -37t63 -62t24 -87.5q0 -46 -21.5 -84t-59.5 -66q45 -29 74 -71.5t32 -102.5q0 -53 -25 -93t-66 -68t-94.5 -42t-110.5 -14q-52 0 -104.5 13.5t-94.5 40.5
t-68.5 67.5t-26.5 95.5zM479 211q0 26 -14.5 43t-36 27.5t-47.5 14.5t-48 4q-21 0 -46.5 -4t-47 -14t-36 -27.5t-14.5 -43.5q0 -27 14 -44.5t35 -28t46.5 -14.5t48.5 -4q21 0 46 4t47.5 14.5t37.5 28t15 44.5zM214 511q0 -21 12 -34.5t30 -21.5t39 -11t39 -3q17 0 38 3
t39.5 11t31 21.5t12.5 34.5t-12 34t-30.5 20.5t-40 10.5t-39.5 4q-17 0 -37.5 -3t-38.5 -10.5t-30.5 -21t-12.5 -34.5z" />
    <glyph glyph-name="nine" unicode="9" horiz-adv-x="674" 
d="M147 149q20 -8 41 -10t33 -2q61 0 103.5 18.5t70.5 44t42 53.5t17 48q-29 -26 -77.5 -43.5t-102.5 -17.5q-48 0 -90.5 15t-74.5 44.5t-51 72t-19 96.5q0 52 20.5 97.5t58 80t89 54.5t113.5 20q76 0 133 -24.5t95.5 -66.5t57.5 -98t19 -118q0 -70 -22.5 -143.5
t-70.5 -133.5t-123.5 -98t-180.5 -38q-45 0 -71 5.5t-40 9.5zM198 476q0 -48 39 -74t96 -26q25 0 48.5 6.5t42.5 19.5t30.5 31.5t11.5 42.5q-2 55 -42.5 79.5t-101.5 24.5q-24 0 -46 -6.5t-39.5 -19t-28 -32t-10.5 -46.5z" />
    <glyph glyph-name="A" unicode="A" horiz-adv-x="730" 
d="M496 118h-262l-38 -118h-162l240 700h183l239 -700h-161zM450 258l-85 260l-85 -260h170z" />
    <glyph glyph-name="B" unicode="B" horiz-adv-x="657" 
d="M546 371q32 -32 52 -71t20 -89q0 -42 -15.5 -78.5t-42 -64.5t-63 -46t-78.5 -22h-350v700h314q40 -3 76 -20.5t63.5 -45.5t43.5 -65t16 -80q0 -62 -36 -118zM394 140q29 0 50.5 20.5t21.5 50.5q0 29 -21 50t-51 22h-177v-143h177zM217 418h142q29 0 50 20.5t21 50.5
q0 29 -20.5 49.5t-50.5 21.5h-142v-142z" />
    <glyph glyph-name="C" unicode="C" horiz-adv-x="747" 
d="M708 140q-52 -72 -125.5 -116t-163.5 -44q-76 0 -143 29t-117.5 79t-80 117.5t-29.5 144.5q0 76 29 143t79 117.5t117.5 80t144.5 29.5q89 0 159 -40t123 -112l-125 -85q-12 19 -27 36.5t-34 31t-43 21.5t-53 8q-45 0 -85 -19t-70 -50.5t-47 -73.5t-17 -87t17 -87
t47 -73.5t70 -50.5t85 -19q52 0 91.5 27.5t65.5 70.5z" />
    <glyph glyph-name="D" unicode="D" horiz-adv-x="754" 
d="M355 700q72 0 135.5 -27.5t111 -74.5t75.5 -111t28 -137q0 -72 -27.5 -135.5t-74.5 -111.5t-111 -75.5t-137 -27.5h-286v700h286zM345 145q42 0 79.5 16t65 43.5t43.5 65t16 80.5q0 42 -16 79.5t-43.5 65.5t-65 44t-79.5 16h-126v-410h126z" />
    <glyph glyph-name="E" unicode="E" horiz-adv-x="551" 
d="M512 140v-140h-443v700h437v-140h-289v-140h217v-140h-217v-140h295z" />
    <glyph glyph-name="F" unicode="F" horiz-adv-x="558" 
d="M217 560v-159h229v-145h-229v-256h-148v700h450v-140h-302z" />
    <glyph glyph-name="G" unicode="G" horiz-adv-x="836" 
d="M780 378q1 -7 1 -14v-14q0 -76 -27.5 -143t-76 -117.5t-114.5 -80t-143 -29.5q-76 0 -143.5 29t-118 79t-80 117.5t-29.5 144.5q0 76 29 143t79 117.5t118 80t145 29.5q89 0 159.5 -40t122.5 -112l-122 -83q-12 18 -28.5 35t-37 30.5t-44.5 21.5t-50 8q-45 0 -85 -19
t-70 -50.5t-47 -73.5t-17 -87t17 -87t47 -73.5t70 -50.5t85 -19q64 0 113 35.5t74 91.5h-187v131h360z" />
    <glyph glyph-name="H" unicode="H" horiz-adv-x="713" 
d="M644 700v-700h-150v280h-275v-280h-150v700h150v-280h275v280h150z" />
    <glyph glyph-name="I" unicode="I" horiz-adv-x="288" 
d="M219 0h-150v700h150v-700z" />
    <glyph glyph-name="J" unicode="J" horiz-adv-x="631" 
d="M562 268q0 -59 -22.5 -111.5t-61.5 -91.5t-91.5 -62t-112.5 -23q-85 0 -145 44.5t-95 116.5l131 77q15 -38 40 -62.5t69 -24.5q28 0 53.5 11t44 29.5t29.5 43.5t11 53v432h150v-432z" />
    <glyph glyph-name="K" unicode="K" horiz-adv-x="677" 
d="M452 0l-233 290v-290h-150v700h150v-293l236 293h180l-276 -344l284 -356h-191z" />
    <glyph glyph-name="L" unicode="L" horiz-adv-x="550" 
d="M516 140v-140h-447v700h148v-560h299z" />
    <glyph glyph-name="M" unicode="M" horiz-adv-x="846" 
d="M777 700v-700h-150v442l-206 -280l-207 280v-442h-150v700h150l207 -284l206 284h150z" />
    <glyph glyph-name="N" unicode="N" horiz-adv-x="715" 
d="M512 0l-298 415v-415h-150v700h138l299 -416v416h150v-700h-139z" />
    <glyph glyph-name="O" unicode="O" horiz-adv-x="838" 
d="M419 720q77 0 144.5 -29.5t117.5 -80t79 -117.5t29 -143q0 -77 -29.5 -144.5t-80 -117.5t-117.5 -79t-143 -29q-77 0 -144.5 29.5t-117.5 80t-79 117.5t-29 143q0 77 29.5 144.5t79.5 117.5t117.5 79t143.5 29zM419 119q45 0 85 19t70 51t47 74t17 87t-17 87t-47 73.5
t-70 50.5t-85 19t-85 -19t-70 -50.5t-47 -73.5t-17 -87t17 -87t47 -74t70 -51t85 -19z" />
    <glyph glyph-name="P" unicode="P" horiz-adv-x="656" 
d="M357 700q51 0 96.5 -19.5t79.5 -53.5t54 -79.5t20 -97.5q0 -51 -19.5 -97t-53.5 -80t-79.5 -54t-97.5 -20h-138v-199h-150v700h288zM340 339q23 0 43 9t35 24t23.5 35t8.5 43q0 22 -8.5 42t-23.5 35t-35 24t-43 9h-121v-221h121z" />
    <glyph glyph-name="Q" unicode="Q" horiz-adv-x="846" 
d="M702 -71l-109 93q-39 -20 -82.5 -31t-90.5 -11q-77 0 -145 29.5t-118 80t-79 117.5t-29 143q0 77 29.5 144.5t80 117.5t118 79t143.5 29q77 0 144.5 -29.5t117.5 -80t79 -117.5t29 -143q0 -67 -22 -126.5t-61 -107.5l90 -77zM420 119q13 0 26 2t25 5l-91 78l94 111
l120 -102q21 29 33 64t12 73q0 45 -17 87t-47 73.5t-70 50.5t-85 19t-85 -19t-70 -50.5t-47 -73.5t-17 -87t17 -87t47 -74t70 -51t85 -19z" />
    <glyph glyph-name="R" unicode="R" horiz-adv-x="679" 
d="M471 0l-142 216h-110v-216h-150v700h301q49 0 93 -19t77 -51.5t52.5 -76.5t19.5 -95q0 -69 -35 -125.5t-92 -87.5l160 -245h-174zM354 356q21 0 39.5 8t32 22t21.5 32.5t8 39.5t-8 39.5t-21.5 32.5t-32 22t-39.5 8h-135v-204h135z" />
    <glyph glyph-name="S" unicode="S" horiz-adv-x="660" 
d="M618 193q0 -60 -24.5 -100.5t-65.5 -65t-93.5 -35.5t-107.5 -11q-96 0 -167.5 45t-117.5 114l132 78q11 -19 27.5 -36.5t36.5 -31t43.5 -22t47.5 -8.5q20 0 44 2.5t45 10t35 20.5t14 35q0 19 -11.5 32t-31.5 23t-47 17t-58 14q-41 9 -86 22.5t-82.5 37.5t-62 62.5
t-24.5 98.5q0 55 22 97.5t58 70.5t82 42.5t94 14.5q88 0 157.5 -42.5t117.5 -109.5l-125 -85q-9 17 -24 34t-34 31t-41.5 23t-47.5 9q-19 0 -38 -5t-34.5 -15t-25.5 -24.5t-10 -32.5q0 -16 11 -27.5t29.5 -20t43 -15.5t52.5 -14q44 -11 91 -25.5t86 -40t64.5 -65.5
t25.5 -102z" />
    <glyph glyph-name="T" unicode="T" horiz-adv-x="625" 
d="M591 560h-203v-560h-150v560h-204v140h557v-140z" />
    <glyph glyph-name="U" unicode="U" horiz-adv-x="708" 
d="M644 267q0 -59 -22.5 -111t-61 -91t-91 -62t-112.5 -23q-59 0 -111.5 22.5t-91.5 61t-62 91t-23 112.5v433h150v-432q0 -29 11 -55.5t29.5 -47.5t43.5 -33.5t54 -12.5q28 0 53 12.5t44 33.5t29.5 47.5t10.5 55.5v432h150v-433z" />
    <glyph glyph-name="V" unicode="V" horiz-adv-x="736" 
d="M702 700l-240 -700h-189l-239 700h164l170 -518l169 518h165z" />
    <glyph glyph-name="W" unicode="W" horiz-adv-x="1051" 
d="M1017 700l-194 -700h-191l-106 423l-106 -423h-191l-195 700h165l124 -497l120 497h166l120 -497l124 497h164z" />
    <glyph glyph-name="X" unicode="X" horiz-adv-x="699" 
d="M435 350l230 -350h-171l-144 220l-145 -220h-171l230 350l-230 350h171l145 -220l145 220h170z" />
    <glyph glyph-name="Y" unicode="Y" horiz-adv-x="676" 
d="M642 700l-229 -444v-256h-150v256l-229 444h156l148 -301l148 301h156z" />
    <glyph glyph-name="Z" unicode="Z" horiz-adv-x="610" 
d="M571 145v-145h-532v106l326 450h-310v144h500v-133l-307 -422h323z" />
    <glyph glyph-name="a" unicode="a" 
d="M609 509v-509h-150v40q-32 -27 -70 -43.5t-80 -16.5q-57 0 -107.5 21.5t-87.5 59t-58.5 87.5t-21.5 106q0 57 22 107.5t59.5 87.5t87.5 58.5t106 21.5q42 0 80 -16.5t70 -42.5v39h150zM325 115q28 0 53.5 11t44.5 29.5t30 44t11 54.5t-11 54.5t-30 44t-44.5 29.5
t-53.5 11q-29 0 -54.5 -11t-44 -29.5t-29.5 -44t-11 -54.5t11 -54.5t29.5 -44t44 -29.5t54.5 -11z" />
    <glyph glyph-name="b" unicode="b" 
d="M207 700v-230q32 26 70.5 42.5t80.5 16.5q56 0 106 -21.5t87.5 -58.5t59 -87.5t21.5 -107.5q0 -56 -21.5 -106t-58.5 -87.5t-87 -59t-107 -21.5q-42 0 -80 16.5t-71 43.5v-40h-150v700h150zM203 254q0 -29 11 -54.5t29.5 -44t44 -29.5t54.5 -11t54.5 11t44 29.5t29.5 44
t11 54.5t-11 54.5t-29.5 44t-44 29.5t-54.5 11t-54.5 -11t-44 -29.5t-29.5 -44t-11 -54.5z" />
    <glyph glyph-name="c" unicode="c" horiz-adv-x="587" 
d="M557 90q-38 -51 -104 -80.5t-144 -29.5q-55 0 -105 21.5t-87.5 59t-60 87.5t-22.5 106q0 57 21.5 107.5t59 87.5t87.5 58.5t107 21.5q79 0 143.5 -29.5t102.5 -79.5l-119 -82q-17 25 -48.5 40t-78.5 15q-26 0 -48.5 -11t-39.5 -30t-26.5 -44.5t-9.5 -53.5q0 -27 10 -52
t27.5 -44.5t40 -31t46.5 -11.5q45 0 76 14t47 36z" />
    <glyph glyph-name="d" unicode="d" 
d="M609 700v-700h-150v40q-33 -27 -71 -43.5t-80 -16.5q-57 0 -107 21.5t-87 59t-58.5 87.5t-21.5 106q0 57 21.5 107.5t59 87.5t87.5 58.5t106 21.5q42 0 80.5 -16.5t70.5 -42.5v230h150zM324 115q29 0 54.5 11t44 29.5t29.5 44t11 54.5t-11 54.5t-29.5 44t-44 29.5
t-54.5 11t-54.5 -11t-44 -29.5t-29.5 -44t-11 -54.5t11 -54.5t29.5 -44t44 -29.5t54.5 -11z" />
    <glyph glyph-name="e" unicode="e" horiz-adv-x="632" 
d="M321 529q60 0 111.5 -22t89 -59.5t59 -87.5t21.5 -106q0 -11 -1 -23t-3 -23h-405q13 -38 45.5 -65.5t82.5 -27.5q36 0 70.5 14t52.5 37l121 -74q-20 -26 -47 -46.5t-59 -35t-67 -22.5t-71 -8q-60 0 -112.5 21.5t-91 59t-61 87.5t-22.5 106q0 57 23 107.5t62 87.5t91 58.5
t111 21.5zM321 393q-45 0 -76.5 -24t-47.5 -58h248q-15 34 -47 58t-77 24z" />
    <glyph glyph-name="f" unicode="f" horiz-adv-x="432" 
d="M281 509h124l-30 -130h-94v-379h-150v379h-104v130h104v53q0 33 12.5 61.5t34 50t50 34t61.5 12.5q67 0 107.5 -8.5t51.5 -11.5l-30 -137q-6 5 -24.5 13t-57.5 8q-23 0 -39 -15.5t-16 -37.5v-22z" />
    <glyph glyph-name="g" unicode="g" 
d="M609 509v-505q0 -57 -23 -107t-61 -87t-87.5 -58.5t-102.5 -21.5q-79 0 -144 29t-103 79l124 85q19 -26 46 -42t77 -16q24 0 46.5 12t40 32t28 44.5t10.5 50.5v36q-33 -27 -71 -43.5t-80 -16.5q-57 0 -107.5 21.5t-87.5 59t-58.5 87.5t-21.5 106q0 57 22 107.5t59.5 87.5
t87.5 58.5t106 21.5q42 0 80 -16.5t71 -42.5v39h149zM325 115q29 0 54.5 11t44 29.5t29.5 44t11 54.5t-11 54.5t-29.5 44t-44 29.5t-54.5 11t-54.5 -11t-44 -29.5t-29.5 -44t-11 -54.5t11 -54.5t29.5 -44t44 -29.5t54.5 -11z" />
    <glyph glyph-name="h" unicode="h" horiz-adv-x="626" 
d="M359 529q45 0 84 -17t68.5 -46.5t46.5 -68.5t17 -84v-313h-150v284q0 22 -9 42t-24 35t-35 23.5t-42 8.5q-23 0 -43 -9t-35 -24t-24 -35t-9 -43v-282h-150v700h150v-249q31 35 69.5 56.5t85.5 21.5z" />
    <glyph glyph-name="i" unicode="i" horiz-adv-x="261" 
d="M54 509h150v-509h-150v509zM129 740q37 0 63 -26t26 -63t-26 -63t-63 -26t-63 26t-26 63t26 63t63 26z" />
    <glyph glyph-name="j" unicode="j" horiz-adv-x="263" 
d="M206 509v-553q0 -45 -17 -86.5t-49 -73.5t-73.5 -49t-87.5 -17q-24 0 -47.5 3.5t-44.5 11.5l31 136q27 -15 57 -15q35 0 58 20t23 48v575h150zM131 740q37 0 63 -26t26 -63t-26 -63t-63 -26t-63 26t-26 63t26 63t63 26z" />
    <glyph glyph-name="k" unicode="k" horiz-adv-x="602" 
d="M386 0l-182 179v-179h-150v700h150v-368l168 177h185l-239 -251l264 -258h-196z" />
    <glyph glyph-name="l" unicode="l" horiz-adv-x="255" 
d="M204 700v-700h-150v700h150z" />
    <glyph glyph-name="m" unicode="m" horiz-adv-x="931" 
d="M681 529q41 0 77.5 -17t63.5 -46.5t42.5 -68.5t15.5 -84v-313h-150v284q0 22 -7.5 42t-20 35t-29.5 23.5t-36 8.5t-36 -9t-29.5 -24t-20 -35t-7.5 -43v-282h-150v284q0 22 -7.5 42t-20 35t-29.5 23.5t-36 8.5t-36 -9t-29.5 -24t-20 -35t-7.5 -43v-282h-151v509h151v-55
q26 34 57.5 54.5t73.5 20.5q54 0 93.5 -21t64.5 -56q29 33 73 55t111 22z" />
    <glyph glyph-name="n" unicode="n" horiz-adv-x="629" 
d="M362 529q45 0 84 -17t68.5 -46.5t46.5 -68.5t17 -84v-313h-150v284q0 22 -9 42t-24 35t-35 23.5t-42 8.5q-23 0 -43 -9t-35 -24t-24 -35t-9 -43v-282h-150v509h150v-58q31 35 69.5 56.5t85.5 21.5z" />
    <glyph glyph-name="o" unicode="o" horiz-adv-x="659" 
d="M330 -20q-62 0 -116 21.5t-94 59t-63 87.5t-23 106q0 57 23.5 107.5t64 87.5t94 58.5t114.5 21.5t115 -22t94 -59.5t63 -87.5t23 -106q0 -57 -23.5 -107t-63.5 -87t-94 -58.5t-114 -21.5zM330 393q-33 0 -59.5 -12t-45 -32t-29 -45t-10.5 -50q0 -26 9.5 -50.5t28 -44.5
t45.5 -32t61 -12t60.5 12t45 32t28.5 44.5t10 50.5q0 25 -10.5 50t-29 45t-45 32t-59.5 12z" />
    <glyph glyph-name="p" unicode="p" horiz-adv-x="663" 
d="M355 529q56 0 106 -21.5t87.5 -58.5t59 -87.5t21.5 -107.5q0 -56 -21.5 -106t-58.5 -87.5t-87 -59t-107 -21.5q-42 0 -80 16.5t-71 43.5v-290h-150v759h150v-39q32 26 70.5 42.5t80.5 16.5zM339 115q29 0 54.5 11t44 29.5t29.5 44t11 54.5t-11 54.5t-29.5 44t-44 29.5
t-54.5 11t-54.5 -11t-44 -29.5t-29.5 -44t-11 -54.5t11 -54.5t29.5 -44t44 -29.5t54.5 -11z" />
    <glyph glyph-name="q" unicode="q" 
d="M609 509v-759h-150v290q-32 -27 -70 -43.5t-80 -16.5q-57 0 -107.5 21.5t-87.5 59t-58.5 87.5t-21.5 106q0 57 22 107.5t59.5 87.5t87.5 58.5t106 21.5q42 0 80 -16.5t70 -42.5v39h150zM324 116q29 0 54.5 11t44 29.5t29.5 43.5t11 54t-11 54.5t-29.5 44t-44 29.5
t-54.5 11t-54 -11t-43.5 -29.5t-29.5 -44t-11 -54.5t11 -54t29.5 -43.5t43.5 -29.5t54 -11z" />
    <glyph glyph-name="r" unicode="r" horiz-adv-x="466" 
d="M354 529q24 0 47.5 -3.5t44.5 -11.5l-31 -136q-2 6 -20 10.5t-36 4.5q-36 0 -64 -8t-47.5 -19.5t-30 -25t-10.5 -25.5v-315h-150v509h150v-79q4 15 20.5 32.5t38 32t45 24.5t43.5 10z" />
    <glyph glyph-name="s" unicode="s" horiz-adv-x="562" 
d="M299 321q37 -9 76 -21t70.5 -32t52 -49.5t20.5 -73.5q0 -47 -23 -78.5t-58 -51t-77.5 -27.5t-82.5 -8q-78 0 -138.5 35.5t-102.5 100.5l130 69q20 -34 52.5 -51.5t64.5 -17.5q46 0 66.5 7t20.5 19q0 10 -13.5 17.5t-31 13.5t-34.5 9.5t-24 4.5q-36 7 -73 18.5t-67 31
t-49.5 48t-19.5 70.5q0 43 18.5 75.5t48.5 54.5t68.5 33t78.5 11q73 0 134.5 -34t103.5 -93l-121 -76q-22 35 -52.5 51t-59.5 16q-33 0 -52 -9t-19 -23q0 -6 9 -11.5t22.5 -11t30 -10t31.5 -7.5z" />
    <glyph glyph-name="t" unicode="t" horiz-adv-x="460" 
d="M434 -1q-22 -8 -58.5 -13.5t-102.5 -5.5q-33 0 -61.5 12.5t-49.5 34t-33.5 50t-12.5 61.5l-1 241h-104v130h104v162h150v-162h124l-29 -130h-95v-210q1 -22 16.5 -37.5t38.5 -15.5q39 0 56.5 8.5t25.5 12.5z" />
    <glyph glyph-name="u" unicode="u" horiz-adv-x="606" 
d="M555 0h-149v52q-30 -33 -66 -52.5t-80 -19.5t-82 17t-66 46.5t-44.5 68.5t-16.5 84v313h150v-284q0 -23 8 -42.5t22 -34.5t32.5 -23.5t39.5 -8.5t39.5 8.5t33 23.5t22.5 35.5t8 43.5v282h149v-509z" />
    <glyph glyph-name="v" unicode="v" horiz-adv-x="621" 
d="M178 509l132 -369l133 369h158l-203 -509h-175l-203 509h158z" />
    <glyph glyph-name="w" unicode="w" horiz-adv-x="864" 
d="M844 509l-158 -509h-173l-81 305l-81 -305h-173l-158 509h148l94 -341l91 341h158l91 -341l94 341h148z" />
    <glyph glyph-name="x" unicode="x" horiz-adv-x="609" 
d="M391 254l198 -254h-173l-111 143l-111 -143h-174l198 254l-198 255h173l112 -143l111 143h173z" />
    <glyph glyph-name="y" unicode="y" horiz-adv-x="621" 
d="M362 -97q-24 -54 -51.5 -88t-59 -52.5t-67.5 -25.5t-76 -7q-46 0 -88 14l31 137q14 -8 28.5 -11.5t28.5 -3.5v-1q19 0 36 3t32 11.5t28 24.5t25 43l21 53h-30l-200 509h158l132 -348l133 348h158z" />
    <glyph glyph-name="z" unicode="z" horiz-adv-x="561" 
d="M515 135v-135h-477v70l246 304h-232v135h449v-86l-233 -288h247z" />
    </font>
</defs>
</svg>
