<svg id="symbol" xmlns="http://www.w3.org/2000/svg" viewBox="0 0 1410.45 753.18"><defs><style>.cls-1{fill:#f58331;}.cls-2{fill:#e31265;}.cls-3{fill:#fdb845;}.cls-4{fill:#0093f3;}</style></defs><g id="envision"><path class="cls-1" d="M244.77,1035.49q0-50.22,0-100.43c0-6.61-.13-6.7-6.7-6.74-3.34,0-6.67-.08-10,0-3,.06-4.2-1.32-4.19-4.23q.06-18.5,0-37c0-2.59,1-4.17,3.77-4.1,8.32.21,16.68-.06,24.94.76a34.64,34.64,0,0,1,21.89,11c2.37,2.5,4.12,2.85,7.16.85,48-31.58,111.3-3.12,121.45,55.49A83,83,0,0,1,404.16,965q.1,85.44,0,170.88c0,7.07,0,7.08-7.33,7.09q-14.75,0-29.5,0c-7,0-7.27-.23-7.27-7.34q0-84.44,0-168.88c0-7-.88-13.55-4.15-19.8a35.36,35.36,0,0,0-39-18.62c-14.51,2.86-26.49,16.27-27.94,31.49-.47,5-.75,10-.75,14.95q-.09,80.43,0,160.88c0,7.29,0,7.31-7.14,7.32-10,0-20-.24-30,.1-5.16.18-6.49-1.74-6.47-6.67C244.85,1102.77,244.77,1069.13,244.77,1035.49Z" transform="translate(-35.17 -390.12)"/><path class="cls-1" d="M1247.77,1035.73q0-50.22,0-100.43c0-6.93,0-6.95-7-7-13.94-.08-13.94-.08-13.94-14,0-8.66.11-17.32,0-26-.07-3.71,1-5.62,5.08-5.43,8,.38,16,.05,23.93.89a34.28,34.28,0,0,1,21.46,10.8c2.51,2.62,4.33,3,7.56.88,47.76-31.26,110.83-3.15,121.2,55.38a77.13,77.13,0,0,1,1.1,13.41q.12,85.93,0,171.87c0,6.71-.1,6.82-6.58,6.83q-15.25,0-30.5,0c-6.68,0-7-.33-7-7.09q0-68.46,0-136.91c0-11.65.09-23.31,0-35-.24-20.22-15.15-35.81-34.85-36.63-18.24-.76-34.26,14.1-36.24,33.7-.39,4-.63,8-.64,11.95q-.06,81.2,0,162.39c0,7.54,0,7.55-7.4,7.56q-14.75,0-29.49,0c-6.5,0-6.62-.14-6.62-6.82Q1247.76,1085.94,1247.77,1035.73Z" transform="translate(-35.17 -390.12)"/><path class="cls-1" d="M1041.82,1012.71c0-16.81-.38-33.64.08-50.44,1-38.89,35-75.18,73.19-79.31,45.19-4.88,83.41,25.87,92,68.8a95.42,95.42,0,0,1,1.86,17.84c.19,28.8.43,57.6,0,86.4-.42,27.8-10.83,51.45-32.89,68.81-44,34.65-106.78,17.27-128-35a81.35,81.35,0,0,1-6.33-31.61c.12-15.15,0-30.3,0-45.45Zm123,.4c0-15,.27-30-.06-44.93-.59-26.73-25-45.61-49.88-38.81-17.27,4.72-29.29,20.43-29.54,40q-.54,43.17,0,86.36c.26,19.14,11.73,34.7,28,39.66,25.25,7.66,50.75-11,51.36-37.89C1165.1,1042.74,1164.82,1027.92,1164.83,1013.11Z" transform="translate(-35.17 -390.12)"/><path class="cls-1" d="M93.7,1030.93c0,13.78-1.23,28.18.34,42.26,1.65,14.66,14.8,24.43,29.7,24.5,24.32.12,48.65.16,73-.06,5,0,6.76,1.35,6.6,6.48-.34,11.15-.23,22.31,0,33.46.06,4-1.23,5.61-5.43,5.59-26.32-.15-52.65.21-79-.21C89,1142.48,60.45,1119,52.2,1088.53a82.38,82.38,0,0,1-3.11-20.65Q48.63,1013,49,958c.2-34.91,25-66.1,58.16-73.38A69.23,69.23,0,0,1,121.49,883c25.16-.16,50.32,0,75.47-.18,4.74,0,6.47,1.36,6.34,6.22-.3,10.82-.08,21.64-.1,32.47,0,6.7,0,6.75-6.62,6.75-24.15,0-48.31-.05-72.47,0-13.41.05-24.16,7.51-29,19.84a31.58,31.58,0,0,0,7.72,34,28.45,28.45,0,0,0,20.42,7.9c24.32-.1,48.64,0,73,0,6.91,0,7,.11,7,6.91,0,11.16-.11,22.32.07,33.47.06,4-1.24,5.66-5.43,5.64-25.48-.13-51,.34-76.46-.32C112.23,1035.47,103.14,1032.64,93.7,1030.93Z" transform="translate(-35.17 -390.12)"/><path class="cls-1" d="M525.84,1064.88q5.5-17.84,11-35.69Q558.46,958.77,580,888.31c1.18-3.9,2.94-5.73,7.32-5.62,11.66.27,23.32.08,35,.1,1.46,0,2.92.23,5.06.4-.6,2.6-1,4.82-1.63,7q-22.43,73.05-44.89,146.09-15.27,49.65-30.52,99.3C548,1143,548,1143,540,1143c-11,0-22-.11-33,.06-3.63,0-5.34-1.38-6.38-4.8q-27.3-89.33-54.76-178.59-10.69-34.86-21.39-69.71c-.61-2-.93-4.08-1.5-6.65,2.41-.21,4.19-.48,6-.49,11.33,0,22.66.13,34-.1,4-.09,5.91,1.26,7.09,5.14q16.92,55.68,34.13,111.26,9.61,31.27,19.26,62.53c.33,1.08.81,2.11,1.22,3.16Z" transform="translate(-35.17 -390.12)"/><path class="cls-1" d="M832.2,1143.3c-34.21-.82-58.69-14.74-73.35-44.54-2.66-5.42-2.46-5.87,3-8,10.53-4.18,21.11-8.23,31.61-12.5,3.1-1.26,4.82-1.11,6.7,2.25,11.23,20.18,43.56,22.32,57.65,4,8.83-11.49,6.52-28.25-5.21-38-9-7.47-19.56-11.91-30.39-15.91-16.21-6-31.53-13.67-44-25.91-21.8-21.35-28.39-47.1-19.64-76,8.57-28.25,28.38-45.63,57.26-51.23,36.67-7.1,71.78,7.59,88.33,42.51,2.7,5.7,2.59,6.08-3.13,8.35-10.38,4.11-20.81,8.09-31.14,12.31-3.29,1.35-5.06,1.18-7.05-2.39-11.23-20.24-44.5-22-57.95-3.18-8.26,11.51-6.32,28.32,5.6,37A126.79,126.79,0,0,0,837,986.61c17.36,7.13,34.48,14.44,48.09,27.84C907,1036,913.4,1062,904.31,1091c-9,28.59-29.46,45.17-58.71,50.94C840.73,1142.87,835.69,1143,832.2,1143.3Z" transform="translate(-35.17 -390.12)"/><path class="cls-1" d="M685.92,1143.17c-11.83,0-23.66-.12-35.48.06-4.12.07-5.62-1.43-5.56-5.53.16-11.48.18-23,0-34.46-.06-4.16,1.56-5.45,5.6-5.49,13.39-.13,13.39-.25,13.39-13.87q0-73.92,0-147.84c0-6.89,0-6.85-6.92-6.92-13.54-.14-11.9,1.73-12-11.94-.06-9.32.12-18.65-.06-28-.08-4.13,1.52-5.48,5.59-5.5,16.64-.1,33.28-.59,49.93-.69,7.48,0,15,.57,22.44.76,2.71.07,4,1.28,4,3.92,0,12.49.11,25-.2,37.46,0,1.34-2.39,3.48-3.93,3.74-3.4.59-7,.3-10.46.23-2.92-.06-4.37,1.17-4.25,4.14,0,1,0,2,0,3q0,77.16,0,154.34c0,7.19,0,7.15,7.18,7.22,12.53.13,11.71-1.73,11.73,11.88,0,9.32-.12,18.65,0,28,.07,4-1.39,5.62-5.54,5.55C709.58,1143.05,697.75,1143.17,685.92,1143.17Z" transform="translate(-35.17 -390.12)"/><path class="cls-1" d="M976.89,1143.17c-11.83,0-23.66-.12-35.49.06-4.15.07-5.58-1.51-5.52-5.56.16-11.49.18-23,0-34.47-.07-4.2,1.64-5.41,5.64-5.44,13.35-.13,13.35-.25,13.35-13.41q0-74.17,0-148.35c0-6.85,0-6.81-7-6.88-13.53-.14-11.86,1.71-12-12-.06-9.15.13-18.31-.07-27.47-.09-4.15,1.11-6,5.64-6,16.64-.05,33.28-.57,49.93-.67,7.47,0,14.95.57,22.43.76,2.74.07,4,1.34,4,4,0,12.49.11,25-.2,37.45,0,1.33-2.42,3.47-4,3.72-3.57.58-7.34-.1-10.94.42-1.37.2-2.72,2.11-3.61,3.54-.53.85-.14,2.27-.14,3.44q0,77.16,0,154.34c0,7.15,0,7.11,7.22,7.18,12.5.12,11.67-1.72,11.69,11.91,0,9.33-.12,18.65,0,28,.08,4.08-1.47,5.59-5.58,5.52C1000.55,1143.05,988.71,1143.17,976.89,1143.17Z" transform="translate(-35.17 -390.12)"/></g><g id="_0" data-name="0"><path id="_0-2" data-name="0" class="cls-2" d="M1243.28,474.45c42.88.47,81.47,12.81,114.88,39.93,26.13,21.22,43.55,48.57,53.44,80.4,18,57.74,16.63,115-8.42,170.58-22.9,50.78-63.22,81.28-117,93.12-56.58,12.44-109.29,3.18-155.81-33.07-26.86-20.93-44.09-48.63-55.32-80.35-10.42-29.47-13.61-59.8-11.42-90.95,2.14-30.38,7.74-59.87,22.08-86.94,27.17-51.31,69.68-81.58,127.33-90C1223,475.67,1233.18,475.32,1243.28,474.45ZM1371,669.71l1.41-.21c-2.2-16.44-3.41-33.1-6.83-49.29-6-28.52-18.87-53.72-41.64-72.8-30-25.16-65-33.37-103-26.63-46,8.19-80.17,32.87-95,78.48-13.85,42.48-15.28,86-3.61,129.46A121.49,121.49,0,0,0,1162,791c26.64,22.56,57.68,30.78,92.06,28.09,45.29-3.54,78.43-25.84,99.52-65.62C1367.38,727.39,1371,698.84,1371,669.71Z" transform="translate(-35.17 -390.12)"/><g id="birds"><path id="bird_14" class="cls-2" d="M1221.74,554.42c-2.13,2.41-3.86,3.78-3.76,6.93.14,4,1.31,5.46,5.13,5.29,1,0,2.65-.55,2.61,1.3,0,1.55-1.69,1.59-2.67,1.73-2.23.31-4.55,0-6.77.35-2.65.39-4.48,1.33-3.59,4.9.7,2.83-1.13,5.57-1.82,8.77-4-3.1-5.09-7.07-6.16-11.33-.91-3.65-.55-5.54,3.34-6.67,2.13-.62,3.69-2.82,2.15-5.16-1.67-2.57-.19-3.17,1.73-3.68C1214.92,556,1217.93,555.36,1221.74,554.42Z" transform="translate(-35.17 -390.12)"/><path id="bird_13" class="cls-2" d="M1359.36,710.45c2.13-5.32,1.93-10.4,8.59-12,2.25-.54,7-3.56,5.76-8.94-.89-3.93,2.66-5.61,5.84-7.34,1.57,2,.23,3.85-.15,5.62-.61,2.82-1.64,5.53,1,8,1.42,1.33.83,3.13-.09,4.56-1.26,2-3.42,3.35-5.5,2.69-4.42-1.4-7.27.35-9.72,3.62C1363.87,708.32,1362.28,709.41,1359.36,710.45Z" transform="translate(-35.17 -390.12)"/><path id="bird_12" class="cls-2" d="M1096.48,425.83c8.54-4.61,8.59-4.84,4.33-16,3.37,2.15,8.94,1.65,8.59,8.27-.11,2.08,1.84,2.95,4,2.48,2.55-.54,4.22.43,4.8,3.07-1.72.77-7.58-2.73-3.93,4,1.2,2.23-.91,5-2.77,7.06-1.42-.89-2.47-2.11-2.42-3.59.17-5.47-2.91-6-7.09-4.83A7.58,7.58,0,0,1,1096.48,425.83Z" transform="translate(-35.17 -390.12)"/><path id="bird_11" class="cls-2" d="M1159,570.77c-2,1-7.18-1.15-3.6,4.4,1.18,1.81-.41,4.64-2.05,6.26-2.06,2-2.84-1-2.86-1.66-.17-7.1-4.14-7.11-9.36-5.44-.94.3-2.16-.28-3.91-.55,2.87-2.47,7.53-2.39,7.35-6.95-.13-3.28-1.78-6.09-2.78-9.32,3.52,2.15,9.19,1.69,8.66,8.38-.14,1.68,1.58,2.79,3.62,2.45S1158.09,567.89,1159,570.77Z" transform="translate(-35.17 -390.12)"/><path id="bird_10" class="cls-2" d="M1316.67,624.66c-2-4.27-4.46-7.91-1.42-11.83,2.26-2.9-2.3-2.14-1.61-4.23,4-.26,5.82-1.59,4.89-6.59-.56-3,4.17-2.78,7.2-4.29a59.61,59.61,0,0,0-.86,7.71c-.18,2.79-.66,5,3.16,5.05.79,0,1.76.41,1.31,1.52-.2.51-1,1.24-1.4,1.14-8.35-2.38-8.39,4.38-10.21,9.19C1317.51,622.9,1317.22,623.45,1316.67,624.66Z" transform="translate(-35.17 -390.12)"/><path id="bird_9" class="cls-2" d="M1141.46,473.4c-2.41,0-4.82-.1-7.21,0-2.83.15-5.79.27-7,3.58-.69,1.88-2.09,1.94-3.6,1.42a4,4,0,0,1-2.56-3.41c-.31-2.55,2.53-.53,3.32-2.14L1108.23,460c5.36,1.31,10.94,2,14.75,6.41,3.2,3.7,7.91,2.85,11.9,4.08C1137,471.17,1139.44,471.08,1141.46,473.4Z" transform="translate(-35.17 -390.12)"/><path id="bird_8" class="cls-2" d="M1303.44,611.11c-4,0-6.46-.09-8.94,0-2.82.13-5.74.09-6.9,3.61-.61,1.84-2.37,1.79-3.8,1.31a4.22,4.22,0,0,1-2.47-3.52c-.28-2.37,2.54-.34,3.2-1.79-4.69-4.84-10.43-8.49-15.45-13,5.34,1.19,10.71,2.24,14.51,6.57,3.19,3.64,7.93,2.46,11.83,3.89C1297.59,609,1300.17,608.68,1303.44,611.11Z" transform="translate(-35.17 -390.12)"/><path id="bird_7" class="cls-2" d="M1185.2,540.88c4.76-2.45,8.73-7,15.25-4.16a10.62,10.62,0,0,0,7.84,0c7-3.26,11,2.26,16.07,4.83-4.76-1-9.29-3.57-14.38-1.86-2.25.76-5.2.51-5.15,4.16,0,1-.81,1.35-1.75,1.3-.66,0-1.66-.15-1.53-.85,1.18-6.39-4.31-3.92-6.85-4.94C1191.49,538.13,1188.54,541.13,1185.2,540.88Z" transform="translate(-35.17 -390.12)"/><path id="bird_6" class="cls-2" d="M1360.5,652.56c-4.33-.52-8.14-3.25-12.63-1.85-2.63.82-6.22.11-6.6,4.61-.12,1.38-2.19,1.58-3.11.18-3.24-4.92-6.09-6-11.55-4.36-1.38.42-2.67,1.44-5.14.71,5.33-2.62,9.25-6.57,15.49-3.89a10.91,10.91,0,0,0,7.93,0C1351.8,644.78,1355.63,650.24,1360.5,652.56Z" transform="translate(-35.17 -390.12)"/><path id="bird_5" class="cls-2" d="M1305,692.51c-3.7-2.84-4-6.46-4.58-10-.31-1.81.74-1.91,1.73-2.36s2.66-1.3,2.43-2.25c-1.56-6.56,4.15-4.35,6.9-5.91-1.68,1.95-1.71,4.2-1.39,6.34.48,3.17,3.73,1.16,5.34,2.54a2.16,2.16,0,0,1-2.82,1.91c-4.5-.87-7,.26-6.54,5.38C1306.17,689.34,1305.48,690.63,1305,692.51Z" transform="translate(-35.17 -390.12)"/><path id="bird_4" class="cls-2" d="M1224,619.79c-3.46,1-7,.23-10.34,1.48-1.55.58-4.38-.31-3.47,3.33.24,1-2.78,2.44-3.08.48-.61-4.14-3.55-2.91-5.62-3-3-.13-6,.44-9.1.06C1202.63,618,1213.14,616.61,1224,619.79Z" transform="translate(-35.17 -390.12)"/><path id="bird_3" class="cls-2" d="M1145.47,481.4c7.39-12.34,17.46-18.68,31.4-17.39-1.51,1.62-3.82,1.94-6,2.43-2.62.58-5.13,1.16-6.47,4-.42.9-1.94,2.08-2.71,1.93-7.08-1.42-9.91,4.6-14.3,7.87C1147,480.54,1146.51,480.76,1145.47,481.4Z" transform="translate(-35.17 -390.12)"/><path id="bird_2" class="cls-2" d="M1177.61,481.19c-1.38-1.43-3.25-2.87-2.33-5,.77-1.77,3-.92,4.52-.87,1.8.06,3.53,0,4-2,1.64-7.54,7.46-5.68,12.53-5.67-3.36,1.54-8.14,1.16-8.67,6.39-.24,2.26,2.22.67,2.84,1.9C1187,479.65,1180.54,475.91,1177.61,481.19Z" transform="translate(-35.17 -390.12)"/><path id="bird_1" class="cls-2" d="M1288.13,655.4c3.68-4.37,9.39-.09,12.6-3.85s7.2-4.48,11.74-4.2c-2.77,1.29-5.93,1.9-8.07,4.14-.72.75-5,2-.47,3.75.84.34.23,1.31-.3,1.48-1.39.43-3.93,1.22-4.14.84C1296.62,652.36,1292.22,656,1288.13,655.4Z" transform="translate(-35.17 -390.12)"/></g><path id="mountain" class="cls-2" d="M942.88,852.25c4.86-3.19,8.77-5.63,12.54-8.27a32.27,32.27,0,0,0,6.39-5.32,17.81,17.81,0,0,1,6.78-5.53c4.54-2,8.27-3.87,13.26-1.93,1.2.46,3.21-1,4.77-1.72.88-.41,1.53-1.32,2.41-1.73,5.28-2.45,10.59-4.81,16.33-7.41l20.08,13.21,9.4-1.38c1.3-5.69,6.49-9.09,12.42-12.22,2.64-1.39,4.14-5,6.1-7.6,1.15-1.56,1.87-4.16,3.32-4.63,3.67-1.18,7.77-2.32,11.48-1.81a10.6,10.6,0,0,0,10.12-3.49c1.82-1.86,4.52-2.85,6.8-4.28a28.34,28.34,0,0,0,5.12-3.45c4.3-4.24,5.73-4.41,10.62-.74,1.8,1.35,3.71,2.56,4.94,2.2,2.35-2.22,4.63-4.54,7.08-6.65q19.86-17.14,39.82-34.17c2.91-2.48,6-4.76,9.06-7,2.42-1.79,4.79-3.57,8.09-1.3.79.54,2.92-.1,4-.85,12.5-8.9,25.64-16.53,40.32-21.28a4.41,4.41,0,0,0,1.33-.68c7.33-5.74,14.41-6.41,22.34-.45,3.3,2.49,7.86,2.41,11.44-1.79,1.56-1.81,4.83-2.16,6.65-2.9,4.24-2.55,8-4.64,11.61-7,2.69-1.8,5.08-4,7.68-6,1.71-1.28,3.6-2.32,5.33-3.58a14.89,14.89,0,0,1,14.71-2.08,2.71,2.71,0,0,0,2-.19c5.77-3,11.44-6.12,17.29-8.9,1.42-.68,3.8-.89,5-.15,7.8,4.65,15.54,9.41,23,14.57a158.66,158.66,0,0,1,13.9,11.36,8.38,8.38,0,0,0,11.7-.74c2-2.42,4-4.9,6-7.34a10.54,10.54,0,0,1,1.34-1c1.36,1.72,2.73,3.5,4.17,5.22,2.49,3,4.28,6.58,9.21,6.62,2.59,0,7.85,8.1,7.85,10.87,0,9,.15,18-.09,27a11.58,11.58,0,0,1-2.21,6.28,46.27,46.27,0,0,0-9.54,23.28c-.41,3.9-1.91,5.42-6.13,6.06-15.57,2.4-30.38,6.33-42.41,18-6.65,6.48-15.36,10.89-23.26,16.05-8.88,5.82-17.81,11.56-26.9,17-2.39,1.44-5.58,2.74-8.19,2.42-16.66-2.07-31,2.12-42.9,14.23-1.33,1.35-4.22,1.63-6.38,1.63q-137.25.12-274.5.07h-26.9c1.88-1.67,2.9-2.73,4.07-3.58s3.07-1.29,3.93-2.44C937.66,853.5,939.81,850.21,942.88,852.25Z" transform="translate(-35.17 -390.12)"/><path id="cloud" class="cls-2" d="M1431.2,449.35c1.11.1,1.93.19,2.75.25,7.76.59,11.84,5.19,11.67,13.14-.15,6.69-5.1,11.2-12.58,11.24-13,.06-26,0-39,0-8.66,0-17.33-.11-26,0-5.61.09-10.29-1.44-12.86-6.73a11.8,11.8,0,0,1,1.26-13.16c3.6-4.57,8.5-5.45,14-3.95a5.24,5.24,0,0,0,1.34-.07c3.33-7.44,8.82-12,17.67-11.63,1,0,2.31-1.11,3-2.05,6.87-8.94,14.62-12,23.75-9.35,8.79,2.58,13.77,9.59,14.53,20.41A12.93,12.93,0,0,0,1431.2,449.35Z" transform="translate(-35.17 -390.12)"/></g><g id="_2" data-name="2"><path id="cloud-2" data-name="cloud" class="cls-1" d="M92.63,642.65c3.42-7.5,8.94-11.77,17.51-11.59,1.12,0,2.56-1.31,3.37-2.38,6.55-8.56,14.76-11.7,23.91-9C146,622.26,151,629.15,152,639.62a20.33,20.33,0,0,0,.45,2.14c1.52.2,3,.35,4.41.58,6.86,1.13,10.48,6.31,10,14.25A11.22,11.22,0,0,1,155.47,667q-34.44.18-68.87,0a12.27,12.27,0,0,1-12.19-12.57,12.42,12.42,0,0,1,13.09-12.2C89.14,642.26,90.77,642.49,92.63,642.65Z" transform="translate(-35.17 -390.12)"/><path id="city" class="cls-1" d="M595.65,827.14c-.51,10.54,12.25,4.46,19.12,6-1,6.31,2.7,28.63-2.83,29.57-219.12.45-349.82-2-568.92-1.87-8.84,0-7.76.86-7.82-7.67-.05-7.44,0-14.89,0-23.05,4.52-1,13,2.75,13-3.54.13-9.62-.57-11.82,9.78-11.26,9.45,0,9.45,0,10.81-9.62,3-.67,6.83-1,5.12-6.56,5,1,16.2-3.13,14.81,4.25-.39,4.66,0,8.46,6.28,7.58.72-.1,2,.24,2.23.75,3.28,6.91,9.35,2.45,14.06,3.29,4.89-5.1,1.76-21,2.35-28.38-.17-3.83,1.07-6.1,4.21-8.17,8-5.28,11.58-5.07,18.35,2.24,3.62,8.38.27,18.71,1.87,27.7l1.32.16c3-9.94-2.33-21.36,4.9-30.17,9.47-13.37,18.74-.36,21.75,10.1,7.3,7.4,1.47,10.58,4.92,18.68l1.42-.16c1.92-6.34,0-14.13,1.05-20.36,6.88-3.19-.28-12.92,8-13.32,3.75.14,4.79-1.29,4.86-5,.91-33.74,1.47-70.15,2.69-81.42l28-15c1.5,33,2,63,2.95,96.23.08,3.36,1,5.53,4.89,5,8.73-2.84,1.28,29.8,5.3,35.92,1.8-6.59,6.75-5,10.87-5,3.36,0,4.19-1.42,4.26-4.52.21-10.25.69-20.49,1.07-31,4.45,0,7.58-1,6.94-6.1,6.83-7.45,8,8.49,11.07,12.65.28-3.65.95-8.57,3.83-10.88,8.13-3.24-3.05-38.23,7.17-36,5.66.19,11.34.27,17,0,3.94-.2,4.73,1.5,4.71,5-.11,21.82-.06,43.63-.05,65.45,0,6.51,0,6.4,6.58,6.64,2.31.08,4.6.85,8.16,1.55v-18.2c4-1,8.14.08,7.54-5.4-.16-7.78,0,6.43,0-2C358,783.4,352,774,353.21,787c.16,1.78,2.11.93,2.58,1,15.64-.25,5.1,11.08,10.52,19.46,3.91-4.76,1-12.4,1.82-18.12,7.59-2.6,7.59-2.6,7.6-11,0-4,0-8,0-12,0-7.58.28-7.8,8.07-6.53,2.21,7.33.47,8.88,9.31,8.49,13.62,0,13.61,0,17.11,13.25a7.16,7.16,0,0,0,2.51,4.08c-.25-12.43,2-21.58,16.4-13.93,0-6.5.29-12.25-.09-18-.16-13.94,19.19,5,17-16.84,1-15.29-1.07-33.83,6.39-47.37,5.62-7.42,6.48-15,6.89-23.46.69-14.48,1.91-28.94,3.64-43.53,2.32,17.13,1.66,34.77,3.25,52,.33,4.84,1.41,9.6,5.73,13.22,1.91,1.61,2.69,5.08,3.11,7.84,2.18,15.23,4.66,30.48,4.1,45.91.06,6.69-1,6.7,5.5,6.72,4.55,1.17,17.73-3.16,17.35,3.78.2,10.28-.67,46.06,3.4,53.25,2.73.09,3.11,4.9,2.8,1.16-.58-9.22-.57-9,4.57-16.14.81-1.59,6-.93,8.3-1.19,2.37,3.34,3.88,6,5.91,8.19s6.54,17,7,14.33c1.2-4.79.87-10.2,2.91-14.64,1.27,8.78,4.94,16.45,7.69,24.5.36,7.14,31.26-4.68,31.08,2.47-.09,3.45,1.16,4.64,4.62,4.69" transform="translate(-35.17 -390.12)"/><path id="_2-2" data-name="2" class="cls-1" d="M301.53,793.94H439.32c7.58,0,7.6,0,7.61,7.34,0,18-.09,36,.07,54,0,4.43-1.32,6.11-6,6.1q-124.49-.18-249,0c-4.7,0-6.46-1.32-6.38-6.21.25-15.48-.08-31,.25-46.45a13.6,13.6,0,0,1,3.42-8.27C218.5,769.55,248,739,277.18,708.14c20.28-21.37,41.37-42.08,57-67.38,7.13-11.53,13.75-23.4,15.09-37.16,1.42-14.55-.07-28.86-9.53-40.79-15.09-19-46.87-17.45-61.83,2.67-8.25,11.09-11.94,23.73-12.63,37.28-.23,4.5-2,5.58-6.1,5.56q-37.74-.18-75.49,0c-4.68,0-6.14-1.71-5.86-6.19,2.74-43,21.78-76.66,58.31-99.79,21.77-13.78,46-19.88,71.7-20.25,20.63-.3,40.92,1.58,60.62,8.09,43.13,14.25,67.48,48.48,68.89,93.89,1.17,37.46-13.5,68.54-36.34,96.34-15.73,19.13-33.34,36.71-49.87,55.19C323.26,766.79,307,785.73,301,792.54Z" transform="translate(-35.17 -390.12)"/></g><g id="_0-3" data-name="0"><path id="_0-4" data-name="0" class="cls-3" d="M615.12,474.28c52.26.5,97.52,17.69,133,57,23.13,25.65,36.16,56.46,42.35,90.09,7.82,42.45,6.2,84.55-8.48,125.47C758.41,812.61,710.91,849.72,642.48,860c-45.92,6.89-89.19-1.39-128.34-27.35C476,807.32,453.27,771,442.43,727.47c-13.33-53.63-9.91-106.72,13.79-156.92,24.51-51.94,66.39-82.82,123.08-93.22A187.49,187.49,0,0,1,615.12,474.28Zm-26.6,313.61c1.2-1.74-.7-4.52,1.46-5.45,7.52-3.27,12.5-9.69,18.68-14.6,11.86-9.41,22.55-20.23,34.89-29.07,2.64-1.88,5.15-3.66,8.5-1.15,1.78,1.33,3-.59,4.31-1.48,7.5-5.27,15.5-9.62,23.53-14,6.19-3.39,13.31-4.54,18.91-8.49,7.1-5,13.17-5,20.07.11,4.19,3.08,8.56,2,12.12-1.73,1.18-1.24,2.72-2.89,4.16-2.4,5.93,2,5.35-2.61,5.76-5.63,3.48-25.38,3.63-50.78-.95-76-4.72-26-13.82-50.22-31.86-69.93-33.71-36.86-76.13-47.81-123.69-36.8-45,10.43-76.12,37.87-89,83.25a239.81,239.81,0,0,0-5,109.22c5.82,32,21.06,59,46.84,79.49,3.2,2.56,6.14,5.29,10.52,2.44.77-.5,1.52-.14,2.31.28,4,2.15,7,.39,9.49-2.7,1.59-2,3.11-4.32,5.73-4.47,3.33-.18,5.44-1.78,7.44-4.14,2.85-3.37,6-3.69,9.54-.7C584.17,785.45,585.88,787.36,588.52,787.89Z" transform="translate(-35.17 -390.12)"/><path id="plane" class="cls-3" d="M510.35,438.26c-.27.39-.39.82-.62.88C497.46,442.72,487,450.38,475,454.45c-6.38,2.17-13.16,2.94-17.34,9.77l14.23,10c1.74,1.23,3.51.61,5.27.06,3.17-1,6.37-1.93,9.5-3,2.23-.78,3.86.07,5.43,1.48,1.75,1.56.66,3.06-.15,4.46-2.11,3.65-.17,3.86,2.77,3.46s5.95-.73,8.93-1.05c2.35-.26,4.68-.42,6.33,2.14-5.71,3.62-12.09,5.56-18.16,8.16-1.68.72-3.76,1.07-2.46,3.74.65,1.33-.25,2.17-1.28,1.87-5.71-1.63-8.33,2.93-11.85,5.67-.92.71-1.77,1.51-2.7,2.22a3.28,3.28,0,0,1-4.14.31c-1.32-.89-1.19-2.13-.94-3.55.61-3.54,3.2-7.32,1.35-10.54-1.68-2.94-6.06-3.1-9-4.87-5.14-3.06-10.29-6.09-15.37-9.24-3.54-2.21-6.35-.57-9.7.86-5.76,2.46-8.77,7.54-12.6,11.78-3.34,3.69-7.91,6.07-10.48,10.55-1.26,2.18-3.07.86-4.8.15-2-.82-2.2-2-1.64-3.86,1.69-5.74,3.15-11.55,4.86-17.28.8-2.73.73-4.77-2.3-6.08a16,16,0,0,1-4-2.9c-1.81-1.6-3.4-3.36-1.42-5.95S407.64,461,410,462c1.69.73,2.2,4.53,4.86,2.47,2.37-1.86,2.41-9.09.22-11-3.16-2.69-6.63-5-10-7.47-5.87-4.36-12.22-8.22-16.08-14.72-1.3-2.19-3.82-4.45-2.22-7.18s4.86-1.48,7.39-1.48c5.24,0,9.56,2.64,13.67,5.53,7.48,5.26,14.87,10.66,22.32,16a17.27,17.27,0,0,0,3.83,2.29c1.38.49,2.63,1,2.33-1.88-.5-4.9,3.21-7,6.91-3.67,5.07,4.58,10.21,4,16.07,2.85,14.2-2.8,28.48-5.22,42.71-7.86C505.26,435.31,508.26,435.06,510.35,438.26Z" transform="translate(-35.17 -390.12)"/><path id="cloud-3" data-name="cloud" class="cls-3" d="M532.86,704.16c-6.48,0-13-.11-19.43,0-4.62.1-7.42-2.2-8.09-6.43-.69-4.39,1.75-7.49,6-8.32,2.4-.46,2.67-1.52,3-3.5A12.09,12.09,0,0,1,524,675.67c5-1.22,9.21.54,12.38,4.46,1.24,1.54,2.45,2.57,4.49,2.53a4.38,4.38,0,0,1,2.4.6c4.36,3.08,8.49,6.22,14,7.59,3.46.85,3.24,5.19,2.59,8.27s-3.16,5-6.56,5C546.48,704.19,539.67,704.15,532.86,704.16Z" transform="translate(-35.17 -390.12)"/></g><g id="_4" data-name="4"><path id="_4-2" data-name="4" class="cls-4" d="M1026.14,602q0,53.21,0,106.41c0,6.61,0,6.62,6.66,6.64,8.5,0,17,.17,25.49-.06,4.23-.12,6,1.16,5.9,5.65q-.29,28,0,56c0,4.33-1.38,5.92-5.77,5.79-8.49-.25-17-.08-25.49-.07-6.78,0-6.79,0-6.8,7q0,32.48,0,64.94c0,6.93,0,7-6.93,7-24.66,0-49.32-.1-74,.1-4.87,0-6.31-1.65-6.27-6.36.18-22,.09-44,.07-65.94,0-6.62-.09-6.71-6.68-6.71-43.49,0-87-.11-130.47.12-5.4,0-7.32-1.82-7.75-6.91-1.21-14.25-2.87-28.46-4-42.72a14.18,14.18,0,0,1,2.32-7.86q43.39-70.08,87-140,28.65-46,57.27-92c2.06-3.35,4.33-4.81,8.37-4.78q37.23.25,74.48,0c5,0,6.63,1.38,6.6,6.49C1026.05,530.38,1026.14,566.18,1026.14,602ZM873.06,714.65c2.78.18,4.37.37,6,.37q26.73,0,53.44,0c6.5,0,6.58-.09,6.58-6.8q0-49.41,0-98.82c0-1.56-.18-3.12-.28-4.69l-1.22-.34C916.21,640.85,894.89,677.32,873.06,714.65Z" transform="translate(-35.17 -390.12)"/><path id="city-2" data-name="city" class="cls-4" d="M1059.83,863.06s-328.57,0-492.85.11c-4.62,0-6.46-.77-6.09-5.84.51-6.79.1-13.64.15-20.47,0-1.22-.52-3.37,1.17-3.31,5.1.16,3.84-3.33,3.87-6.07.06-6.33,0-12.66,0-19a15.1,15.1,0,0,1,3.11-9.13A20.38,20.38,0,0,0,573,788.49c0-2.24-.67-4.62.58-6.74,1.66-.1,1.75,1.11,1.54,2-1.17,5,2,9.4,2.13,14.25.09,2.87,2.87,2.56,4.06,1.73,1.74-1.21,3.87-3.34,4-5.18.36-6.63,5.1-3,7.8-3.59,2.34-.54,3.39.69,5.15,3.13,3.72,5.19,2.37,10.31,2.79,15.51.33,4.17,3.44,2.07,5.33,2.34,2.05.29,4.49.62,4.36-2.94-.18-4.49.1-9-.1-13.49-.13-2.8.74-3.83,3.63-3.72,5.33.2,10.67-.12,16,.13,3.38.15,4.52-1.16,4.17-4.32-1.29-11.92,1.52-23.66,2.24-35.47.32-5.2,1.54-10.72,1.79-16.16.09-2,2.18-3.37,3-4,6.66-5.07,5.94-12.49,6.63-19.29a161.5,161.5,0,0,0,.36-19.44c-.07-4,.37-7.76,2.8-11.6a14.7,14.7,0,0,1,3.2,9c0,8,.52,15.92.57,23.88.05,7.67,2.42,14.27,8.1,19.52a2.87,2.87,0,0,1,1.25,2c.32,5.58,1.66,11.17,2.15,16.5,1.05,11.43,3,23,1.9,34.59-.35,3.77,1.1,4.88,4.8,4.84,3.87-.05,9.08-2,11.31,1,1.87,2.46.56,7.36.6,11.17,0,3.59,0,7.18,0,11.72,3.88-3.6,7.78-2.66,11.42-2.47,2.83.15,4.68,2,4.63,5.16a74.61,74.61,0,0,0,.49,11.15c2.67-4.81,3.1-10.25,5.27-15.15.86-1.94,1.48-2.53,3.34-2.51,4.83.06,9.67-.18,14.49.09,3.39.18,5.13-.75,4.46-4.36-.78-4.25,1.42-4.75,5-4.86,3.89-.11,4.81,1.21,4.65,4.86-.29,6.48,0,13-.12,19.47-.06,2.89.29,5,3.94,4.46,3.15-.48,3.49,1.34,3.39,3.87-.15,4-.12,8,0,12,0,1.28-.93,3.47,1.35,3.59,2.45.14,1.53-2.13,1.56-3.39.12-4.16.23-8.34,0-12.48-.17-2.93.95-3.61,3.69-3.65,7.7-.1,9-1.58,9-9.33,0-5.17.11-10.33,0-15.49-.08-2.61.43-3.9,3.5-3.83,8.82.19,17.66.15,26.49,0,2.68,0,3.4.9,3.34,3.47-.15,7,.08,14-.11,21-.08,3.11.69,4.8,4.12,4.25,3.18-.51,4,1,3.81,4a120.42,120.42,0,0,0,.39,15.57c2.19-2.64,4.91-2.39,7.36-2,5.27.81,6.25-1.44,6.19-6.32-.27-21.81,0-43.62-.24-65.43-.06-4.56,1.29-5.66,5.57-5.37a150.46,150.46,0,0,0,17,0c3.41-.17,4.15,1.12,4.1,4.27-.14,10.15,0,20.31.05,30.46v14.12h.8V807.17c4.24.74,5.71,3.25,5.16,7.44-.18,1.4-.89,3.36,2.21,4.87-2.56-5.7,3.79-8.35,2.93-13.57-.43-2.61,2.74-1.4,4.33-1.66,1.93-.31,2.83.72,2.62,2.58-.39,3.52.27,5.79,4.66,5.28,2.73-.31,2,2.11,2,3.58-.19,9.45,1.78,18.82,1,28.28-.22,2.7.61,4.13,3.57,3.78a31.42,31.42,0,0,1,3.5,0c5.51,0,5.51,0,7.62,4.31,1.75-1.22.94-3,1-4.49.09-8.66.17-17.32,0-26-.07-3.21.44-5.25,4.23-4.55s4.84-1.39,4.92-4.75q.72-30.93,1.58-61.84c.25-9.3.59-18.6.72-27.91,0-2.94.88-3.76,3.88-3.1a163.7,163.7,0,0,1,22.81,7.21c2.2.83,2.95,2.3,3,4.59q.73,28.92,1.59,57.84c.22,8.14.56,16.28.56,24.43,0,2.93,1.06,4,3.77,3.51,5.08-1,6.32,1.41,5.81,6-.24,2.2-1.19,5.08,2.62,5.93,1.62.36.87,2.3.89,3.52.07,5.33,0,10.65,0,16,0,1.1-.29,2.57,1.5,2.55s1.47-1.47,1.48-2.57c0-2.67-.1-5.34,0-8,.14-2.38-1.32-5.57,2.79-6.26.3-.05.73-.81.68-1.18-.7-6,4.19-9.11,6.63-13.48A4.37,4.37,0,0,1,959,817c2.67.48,6.15-1.5,8,1.25,2.68,4.07,6.75,7.56,6.84,13s0,11,.06,16.48c0,1.51-.64,3.27.89,4.56,1.73-.46,1.23-1.85,1.25-2.85.07-4.33.65-8.77-.09-13-1.59-9,2.37-14.43,10.1-18,.74-.34,1.4-1.1,2.14-1.16,3.07-.27,12.5,8.69,12.51,11.8,0,8.32.26,16.66-.1,25-.19,4.35,1.34,5.59,5.36,5.07a44.31,44.31,0,0,1,6,0c1.88,0,3.74.19,3.7-2.65,0-2.61,2.14-2.32,3.65-2.07,5.12.86,6.49-1.53,5.74-6.09-.13-.81.07-1.68,0-2.49-.32-2.4.67-3.29,3.07-3.16,2.82.15,8.49,0,8.49,0l3.52,3.27,2,2.7,3.79,4.93,5.72,5.63L1060,859" transform="translate(-35.17 -390.12)"/><path id="crane" class="cls-4" d="M578,569c.88.48,1.87,1.11,2.85,1.72A2.34,2.34,0,0,0,584,570h0c-2-3-4.28-5.21-6-8.32-1.26-2.31-2.68-4.95-2.71-7.45-.26-19-.16-37.94-.24-56.91-.05-12.2-8.34-16.81-19.37-13.66-2.46.7-5.28.22-7.93.14-3.48-.12-7-.23-10.42-.65-1.65-.2-3.21-1.12-4.82-1.71.79-1.53,1.31-3.29,2.42-4.54a56,56,0,0,1,8.14-8.08c2.21-1.65,5.18-3.17,7.83-3.21,32.65-.51,65.3-.72,98-1,3.16,0,6.45.33,9.45-.43a15.86,15.86,0,0,0,7.23-4.13c2.26-2.32,4-4.08,7.63-3,1.83.51,4.24-.24,6.17-1q57.57-22.17,115.09-44.49c11.18-4.32,22.43-8.46,33.52-13,2.37-1,4-3.7,6.26-5,2.71-1.52,5.72-3,8.72-3.33s5.44,1.44,6.39,5.06a9.47,9.47,0,0,0,4.23,5C883,417.49,912.81,434.2,942,451.91a51.48,51.48,0,0,0,30.6,7.82c12.3-.59,24.66,0,37-.19,4.06-.06,5.52,1.29,5.55,5.45.1,14.33.24,14.33-14.13,14.33-8.33,0-16.67.17-25-.06-4.61-.14-6.23,1.7-6,6.18.25,6.15-.08,12.33.11,18.48.13,4-1.2,5.84-6.11,5.26a48.67,48.67,0,0,0-12-.06c-4.33.56-6-.73-5.89-4.34.1-6.49-.13-13,.07-19.48.13-4.17-1.26-6.05-5.7-6-23.66.12-47.33-.06-71,.16-4.22,0-8.47,1.25-12.62,2.28-2.54.64-2.85,6.31-1.07,9.24,1.12,1.84,2.27,4.1,2.19,6.13-.46,11.4-1.48,22.78-1.86,34.18-.08,2.43,1.87,4.89,2.6,7.41a24.1,24.1,0,0,1,1.19,6.64q.09,109.4,0,218.8c0,11.79.13,23.59-.06,35.38a5.87,5.87,0,0,0,5.8,6c13.29.11,13.29.24,13.29,13.6,0,11.32-.16,22.65.08,34,.09,4.42-1.14,6.18-5.88,6.13-20.83-.21-41.66-.15-62.48,0-3.68,0-5-.9-4.87-5,.48-14.34,0-28.68.06-43,0-4.28,1.59-5.78,6.07-5.77,13.89.05,12.25,1.94,12.26-12.67q.06-123.14,0-246.28c0-3.51-1.1-7.53,3.84-9.08.53-.17,1.08-1.4,1-2.11-.35-6.36,1.07-12.62-1.84-19.07-2.82-6.26-3.73-13.42-5-20.26a3.8,3.8,0,0,1,2.62-4.23c3.37-1.06,3.53-3.57,3-5.9-.4-1.66-2-3.84-3.53-4.24a50.13,50.13,0,0,0-13.1-2.06q-49.49.22-98.95.87-38.48.45-76.94,1.11c-12,.19-24,.52-36,.75A11.74,11.74,0,0,0,587.78,494c.17,17.31.76,34.61,1.15,51.92.08,3.82,1.35,8.39-.27,11.31C587,564,587,565,588,571c.09.52-4,5.19-5,5-2.13-.43-5-2.85-7-4C576.35,571.55,577.65,569.45,578,569ZM836.3,411.16c-.38-2.29-.83-4.58-1.12-6.88-.75-5.94-1.27-6.27-6.72-4.15q-26.07,10.14-52.14,20.23-47.74,18.43-95.48,36.92c-1.76.68-3.07,2.5-4.58,3.78,2,.83,3.89,1.75,5.89,2.45a7.68,7.68,0,0,0,2.49,0c37.8-.37,75.6-.65,113.4-1.22,5.73-.09,9.85,1.64,13.35,6.08,3.25,4.13,6.22,10.49,12.92,4,.1-.1.32-.09.49-.09,3.45-.1,4.33-2.24,4.62-5.28.67-6.94,1.55-13.86,2.41-20.78C833.29,434.55,834.81,422.87,836.3,411.16ZM848,399.07c-.69,5.72-2.11,10.35-1.63,14.77,1.89,17.49,4.53,34.9,6.53,52.38.51,4.46,2.21,6.12,6.57,6,4.52-.07,5.35-2.68,4.89-6.25-.66-5.1,1.46-6.57,6.47-6.52,23.83.22,47.66.11,71.49.09,1.88,0,3.76-.21,5.65-.33l.59-1.8ZM576.67,514.93h.07c0,7.66.07,15.32,0,23-.05,3.65,1.93,4.46,5.07,4.45s5.3-.81,5.15-4.43c-.16-4.32-.49-8.64-.54-13-.13-10.65-.13-21.31-.22-32,0-3.53-1.7-5.88-5.4-5.75-3.49.11-4.12,2.77-4.11,5.69C576.68,500.28,576.67,507.6,576.67,514.93Zm255.66-44.66,1.35,1c2.15-1.87,4.39-3.64,6.44-5.61,8.69-8.34,8.66-8.36-.78-16.32-.25-.22-.48-.46-.74-.67-2.31-1.89-3.85-.9-4.18,1.59C833.57,456.91,833,463.6,832.33,470.27ZM878,477.21v.05c2.15,0,4.42.43,6.41-.15,1.33-.39,3.11-2.21,3.1-3.38s-1.85-3.32-3-3.43a77.64,77.64,0,0,0-13.38,0c-1.09.09-3,2.12-2.84,3.07a5.11,5.11,0,0,0,2.85,3.68C873.22,477.65,875.66,477.21,878,477.21Zm82.48-7.15c-.8,0-2.48-.43-3.73.11-1.65.72-3,2.2-4.43,3.35,1.38,1.27,2.63,3.36,4.18,3.63a29.35,29.35,0,0,0,9.85-.07c1.35-.24,3.35-2.48,3.25-3.65-.11-1.35-2-3-3.55-3.62S962.79,469.9,960.46,470.06Zm-39.91.12v0c-2.15,0-4.4-.4-6.4.15a4.53,4.53,0,0,0-2.78,3.26c0,1.14,1.55,3.26,2.58,3.36a65.12,65.12,0,0,0,12.33,0c1-.1,2.51-2.28,2.47-3.46s-1.58-2.77-2.8-3.19C924.32,469.76,922.37,470.18,920.55,470.18ZM837.08,680.67l.33,2.15c5.14,0,10.33.37,15.38-.32,1-.14,1.58-4.43,1.91-6.86.07-.57-2-2.19-2.56-2C847.05,675.84,842.08,678.29,837.08,680.67Zm.07,86.56.4,1.8c4.32,0,8.65.22,13-.12,1.46-.11,3.65-1.37,4-2.57.57-1.86-.12-4.11-.28-6.2a26.46,26.46,0,0,0-5.39.83,72.07,72.07,0,0,0-8.09,3.73A32.58,32.58,0,0,0,837.15,767.23ZM837,594.57l.61,2.29c5,0,10,.4,14.89-.32,1.09-.16,1.8-4.21,2.23-6.56.1-.59-1.88-2.32-2.34-2.13C847.22,589.93,842.13,592.29,837,594.57Zm.09,28.85.66,2.31c4.85,0,9.76.45,14.48-.31,1.2-.19,2-4.2,2.48-6.55.13-.64-1.87-2.53-2.28-2.37C847.27,618.65,842.2,621.07,837.11,623.42Zm.11,119.23c-.15.64-.31,1.28-.46,1.92,4.22,2,8.44,4.06,12.65,6.11,1.93.94,4.54,2.57,5-.78.32-2.26-1.1-6.73-2.27-6.92C847.3,742.19,842.22,742.65,837.22,742.65ZM940.51,477.41v-.13c1.65,0,3.5.46,4.91-.13s2.68-2.25,4-3.44c-1.25-1.21-2.39-3.24-3.79-3.45a38,38,0,0,0-10.38,0,4.91,4.91,0,0,0-3.19,3.29c-.19,1,1.37,2.95,2.55,3.39C936.4,477.61,938.53,477.31,940.51,477.41ZM837,599.43l-.51,1.78c4.46,2.2,8.84,4.59,13.43,6.47,1.29.52,3.2-.49,4.83-.8-.74-2.48-1.18-6.94-2.27-7.11C847.4,599,842.16,599.43,837,599.43Zm.52,86.19-.42,1.79c4.15,2.1,8.23,4.4,12.52,6.18,1.4.58,3.37-.17,5.08-.32-.6-2.55-.9-7.16-1.87-7.31C847.8,685.22,842.62,685.62,837.5,685.62Zm.19-29c-.18.79-.37,1.59-.56,2.38,4.11,1.91,8.22,3.8,12.31,5.73,1.93.91,4.52,2.65,5-.79.32-2.3-1.06-6.78-2.25-7C847.48,656.18,842.55,656.66,837.69,656.66Zm40.58-194.4c-2.31,0-4.69-.33-6.9.13a4.83,4.83,0,0,0-3.06,2.86c-.2.67,1.56,2.77,2.53,2.83a112.17,112.17,0,0,0,14.32,0c.88-.05,2.33-2,2.25-3s-1.62-2.43-2.73-2.67C882.63,461.94,880.42,462.25,878.27,462.26Zm21.38,15v0c1.66,0,3.57.51,4.92-.14a6.48,6.48,0,0,0,3.28-3.84c.17-.77-2.05-2.83-3.38-3a36.29,36.29,0,0,0-9.93,0c-1.29.18-3.44,2.38-3.24,3.15a6.57,6.57,0,0,0,3.43,3.72C896.1,477.76,898,477.27,899.65,477.27ZM837.57,771.44l-.39,1.72c4.12,2.15,8.15,4.51,12.41,6.36,1.41.61,3.38-.09,5.09-.19-.71-2.63-1.07-7.33-2.21-7.53C847.63,771,842.56,771.44,837.57,771.44ZM589.1,465.93l-.11.66a31.57,31.57,0,0,0-5.42.1,5,5,0,0,0-2.3,1.86,46.2,46.2,0,0,0,5.79,7.74c.41.4,3.39-1.16,4.63-2.38a52.07,52.07,0,0,0,4.81-6.25ZM837.32,651.84l.39,2c5,0,10,.38,14.95-.32,1-.14,1.58-4.34,2-6.73.07-.47-2.07-2-2.65-1.74C847,647.18,842.18,649.55,837.32,651.84Zm.27,85.9.21,2c5,0,10,.4,14.91-.34,1-.15,1.26-4.7,1.86-7.22-1.54-.13-3.31-.82-4.58-.31C845.76,733.61,841.71,735.75,837.59,737.74Zm-.18-171.67.55,2c4.89,0,9.84.41,14.61-.31,1-.16,1.66-4.32,2-6.71.08-.5-2.06-2.09-2.6-1.86C847.07,561.3,842.26,563.72,837.41,566.07Zm.42,148.33-.3,2c4.08,2,8.09,4.17,12.29,5.86,1.35.55,3.22-.18,4.85-.32-.65-2.5-1-7-2-7.15C847.83,714,842.8,714.4,837.83,714.4ZM553.05,467.23l-1,1.28c2.11,2.61,4.16,5.28,6.38,7.79a2.33,2.33,0,0,0,2.21.45c3.32-2.62,6.52-5.4,9.76-8.13l-.9-1.39ZM847.51,758.7c-.27-.75-.53-1.51-.8-2.26-4.55,0-9.11-.19-13.65.06-3.49.19-3.53,3.09-3.2,5.56a7.83,7.83,0,0,0,2,3.6C837.16,763.49,842.33,761.08,847.51,758.7Zm-1.08-306.57,1.36-.95c-.33-3.87-.45-7.77-1.06-11.6-.25-1.6-1.53-3-2.34-4.54a55.21,55.21,0,0,0-5.76,5c-.77.88-1.33,3.17-.81,3.76C840.47,446.77,843.52,449.39,846.43,452.13ZM837.8,628.56l-.4,1.7c4.2,2.06,8.34,4.27,12.65,6.08,1.27.53,3-.08,4.57-.17-.61-2.53-.9-7.11-1.87-7.26C847.86,628.16,842.8,628.56,837.8,628.56Zm-.5,166.52.6,2.08c4.71,0,9.47.38,14.13-.12,3.75-.41,3-3.92,2.67-6.4-.11-.9-2.23-2.5-2.81-2.27C847,790.41,842.14,792.8,837.3,795.08Zm9-155.65.34-1.55c-3.9-1.94-7.75-4-11.76-5.75-1.35-.58-3.12-.22-4.69-.28.46,2.59.29,7,1.49,7.45A25,25,0,0,0,846.26,639.43Zm0-80.55-.18-2c-3.29-.15-6.58-.43-9.87-.42-6.73,0-8.26,2.74-4.92,9.54Zm-8.94,150.36.44,2c4.83,0,9.71.42,14.43-.3,1.11-.18,1.84-4.14,2.27-6.45.08-.45-2.34-2.13-3-1.85C846.69,704.66,842.05,707,837.37,709.24Zm.56-138c-.16.67-.33,1.35-.49,2,4.12,2,8.15,4.13,12.4,5.74,1.3.5,3.18-.54,4.8-.87-.72-2.3-1.16-6.43-2.19-6.58C847.7,570.84,842.79,571.24,837.93,571.24Zm8-17.13.54-2.13c-3.86-1.94-7.64-4.07-11.63-5.71-1.35-.56-4.59,0-4.62.27-.29,2.72-2,6.68,2.2,7.4C836.8,554.69,841.41,554.11,845.93,554.11Zm73.73-85.84v0c2,0,4.06.37,5.91-.13,1.26-.34,2.2-1.89,3.29-2.9-1.05-1-2-2.75-3.17-2.86a63.5,63.5,0,0,0-11.37,0c-1.09.1-2.06,1.65-3.08,2.53,1,1.11,1.8,2.76,3,3.18C915.89,468.68,917.85,468.27,919.66,468.27ZM830.85,652.14l16.36-7.84c-1.38-1.11-1.74-1.65-2.13-1.68-2.78-.16-5.58-.32-8.37-.31C829.63,642.34,828.57,643.88,830.85,652.14Zm15,73.58.44-2.13c-3.91-1.94-7.8-3.93-11.73-5.81-1.66-.79-4-2.61-4.57.78-.42,2.5-1.65,6.38,2.31,7C836.74,726.25,841.35,725.72,845.87,725.72Zm-15.22,12.4,15.92-7.82-.6-2.14c-3.06,0-6.13,0-9.2,0C829.72,728.24,828.93,729.29,830.65,738.12ZM846,611.32l.65-1.63a28.77,28.77,0,0,0-3.62-2.54c-2.65-1.33-5.37-2.55-8.14-3.62a22,22,0,0,0-4.1-.76c-.3,1.89-1,3.83-.75,5.65a4.05,4.05,0,0,0,2.75,2.77C837.14,611.5,841.57,611.32,846,611.32Zm94.46-143v0c1.83,0,3.78.39,5.45-.12,1.27-.39,2.17-1.93,3.23-3-1.09-1-2.11-2.72-3.29-2.84a56.63,56.63,0,0,0-11,0c-1.05.09-2.91,2-2.73,2.58a5.2,5.2,0,0,0,2.86,3.17C936.63,468.71,938.6,468.3,940.43,468.3Zm-93.5,228.93c.13-.59.26-1.17.4-1.76-4.21-2.05-8.39-4.13-12.63-6.12-1.72-.81-4.23-2.36-4.61.88-.26,2.23.91,6.54,1.9,6.68C836.88,697.61,841.93,697.23,846.93,697.23Zm0-24-.69-1.93c-4.82,0-9.68-.32-14.43.27-.9.11-1.62,3.75-1.88,5.83-.1.76,1.77,2.6,2.13,2.45C837.09,677.77,842,675.46,846.94,673.21Zm-.79,109.84c.17-.65.35-1.3.53-1.95-4-2-8-4.06-12.11-6-1.74-.82-4.29-2-4.5,1.14-.15,2.21,1,6.31,2.11,6.48C836.74,783.48,841.48,783.05,846.15,783.05Zm.11-114.91.54-1.56c-4.09-2-8.1-4.24-12.31-6-1.21-.5-3,.33-4.5.55.62,2.33,1,6.53,1.92,6.67C836.6,668.52,841.46,668.14,846.26,668.14Zm52.29-198.67.56-1.16c2,0,4.09.39,5.93-.14a5,5,0,0,0,2.8-3.15c.16-.65-1.58-2.34-2.7-2.62a15.16,15.16,0,0,0-5.93-.13c-2.86.47-7.56-2-7.64,3.21C891.55,466.78,896.1,468.14,898.55,469.47ZM846.8,587.24c-.19-.63-.39-1.26-.58-1.89-4.8,0-9.63-.31-14.36.28-.91.11-1.64,3.73-1.91,5.8-.1.77,1.75,2.62,2.08,2.48C837,591.84,841.9,589.51,846.8,587.24Zm.07,28.8c-.2-.61-.4-1.22-.59-1.83-4.7,0-9.44-.34-14.06.27-1,.14-1.9,3.57-2.29,5.59-.14.72,1.72,2.65,2.06,2.51C837,620.55,841.93,618.26,846.87,616ZM846,754l.36-1.78c-3.92-1.94-7.77-4.06-11.81-5.7-1.23-.5-3,.3-4.52.51.64,2.32,1,6.5,2,6.65C836.56,754.41,841.3,754,846,754Zm.08-171.91.3-1.88-15.24-7-1.71,1.26c.73,2.53,1.11,7,2.27,7.26C836.33,582.59,841.23,582.1,846.05,582.1Zm.74,119.81-.46-1.74c-4.83,0-9.69-.32-14.44.27-.92.12-1.64,3.73-1.94,5.81-.09.63,1.87,2.34,2.32,2.15C837.17,706.4,842,704.12,846.79,701.91ZM608,478.7c.32-.45.64-.89,1-1.34-1.61-2.22-3.12-4.52-4.9-6.61a2.74,2.74,0,0,0-2.57-.51c-2.65,2.25-5.11,4.73-7.62,7.13.25.45.51.89.76,1.33ZM846.38,787.87c-.14-.58-.27-1.16-.4-1.73-4.68,0-9.4-.34-14,.27-1,.13-1.71,3.69-2,5.76-.1.63,1.89,2.36,2.32,2.18C837,792.35,841.69,790.07,846.38,787.87ZM699.82,465.72c-.29.57-.57,1.15-.86,1.72l8.23,7.21,6.83-7.78-.86-1.15Zm140,77.69c-.2.62-.4,1.24-.61,1.86,3.65,1.8,7.22,3.78,11,5.29,1.23.5,3-.24,4.47-.41-.79-2.25-1.23-6.19-2.43-6.43C848.26,542.9,844,543.41,839.84,543.41ZM621.59,467.86c-.22-.52-.43-1.05-.65-1.57-3.57,0-7.15-.17-10.68.17-.62.06-1.69,2.5-1.39,3.49a9.87,9.87,0,0,0,3.06,4.44c.83.7,3.06,1.05,3.66.49A77.62,77.62,0,0,0,621.59,467.86Zm67.82-.05-.7-1.69H676.54l-.84,1.39,6.58,7.38Zm97.42-3.19-1.05,1.73c2.44,2.24,5,6.38,7.28,6.23,2.54-.16,4.82-4.22,7.22-6.59l-1-1.37Zm24.73,10.85.8-1.53c-2.36-2.25-4.68-6.19-7.09-6.25-2.17-.06-4.45,4.15-6.68,6.48l.93,1.3ZM552.7,476.93c-3.88-7.67-4.85-7.83-9.93-2.78-.7.69-1.46,1.33-2.1,2.07-2,2.3-1,4.09,1.58,3.77C545.66,479.56,548.94,478.08,552.7,476.93Zm198-13.46-6.25,3.25,6,6.69,5.75-7Zm245.11-.84c-.09.7-.19,1.39-.28,2.09,4.42,1.19,8.8,2.54,13.28,3.42.81.16,2.35-1.49,2.89-2.62.3-.62-.71-2.74-1.19-2.76C1005.59,462.55,1000.68,462.63,995.78,462.63Zm-341.71,3.63L653,468l7.39,6.94q3.38-3.82,6.76-7.63l-1-1Zm33.59,9.12,1,1.34h12l.73-1.49c-2.29-2.09-4.62-5.87-6.84-5.8S689.93,473.25,687.66,475.38Zm-107.9,1.36,1.19-1.65c-2.16-1.7-5.26-5.28-6.29-4.76-3.22,1.62-5.65,4.79-8.39,7.36l.93,1.43Zm145.28.49c.15-.51.3-1,.44-1.53a39.24,39.24,0,0,0-3.93-4.74c-1-.94-3.5-2.13-3.83-1.78a41.11,41.11,0,0,0-4.73,6.59c-.06.1,1,1.37,1.64,1.4C718.1,477.31,721.57,477.23,725,477.23Zm-76.47,2.1,5.75-3.21q-2.9-3.21-5.78-6.44l-5.49,6.57ZM644.09,468c-.38-.47-.75-.94-1.12-1.42H631.59c-.31.44-.63.87-1,1.31l6.08,7.05Zm344.33-3.74-.33-2.06a109.6,109.6,0,0,0-11.47.14c-1.31.14-2.45,1.93-3.67,3,1.24,1,2.73,3.07,3.69,2.85A117.67,117.67,0,0,0,988.42,464.29ZM618.29,478.46c4.37,0,7.09.16,9.78-.08,1.12-.1,2.17-1.05,3.25-1.62a49.57,49.57,0,0,0-3.47-5.75c-.45-.58-2.44-.83-2.87-.39C622.89,472.72,621.09,475.1,618.29,478.46ZM853.35,802.7c0-.69-.05-1.38-.08-2.06h-22.4c0,.65,0,1.3,0,2A116.55,116.55,0,0,0,853.35,802.7Zm-75-336.39c-2.74-1-4.26-2-5.64-1.87-2.17.24-4.25,1.29-6.36,2,1.72,2.13,3.43,4.27,5.15,6.41ZM839.82,470l.87,1.89c2.38,0,4.91.53,7.1-.11,4-1.16,2.24-4.56,1.83-7.12-.09-.59-2.44-1.56-2.83-1.24C844.32,465.46,842.11,467.8,839.82,470Zm-79.67,8,6.23-3.84-5.17-5.52-5.52,6.49Zm-36-12.75c-.2.59-.4,1.19-.61,1.79l7,7.66c1.65-2.49,3.15-4.24,4-6.27.29-.71-1-2.94-1.73-3A66.76,66.76,0,0,0,724.12,465.24Zm-48,12.09,1.08-1.71L671,469.71l-6.71,7.62Zm110.71-1,1.08-2.76-7-4.82q-1.61,3.12-3.19,6.25Zm48.54,15.55,5.16-3.36a67.71,67.71,0,0,0-6.56-5.2c-.23-.15-3.17,2.65-2.92,3.22C831.89,488.36,833.62,489.8,835.39,491.85Zm127.46-23.58.77-2c-2.58-1.31-5.07-2.9-7.8-3.75-.82-.25-2.29,1.54-3.46,2.39.92,1.13,1.69,3,2.79,3.23C957.63,468.6,960.27,468.27,962.85,468.27Zm-218.57,9.29,1.25-2.35-6.1-5.6c-1.1,2-2.2,4.07-3.29,6.11ZM837,434.91l1.78.47a25.89,25.89,0,0,0,3.76-3.71c.61-.89,1-2.79.47-3.42a7.72,7.72,0,0,0-4-2.29c-.4-.1-1.71,1.81-1.89,2.91A38,38,0,0,0,837,434.91Zm175.5,39.79c0-.65,0-1.29.05-1.93-1.4-.88-2.81-2.45-4.19-2.43-1.18,0-3.41,2.08-3.26,2.85.3,1.48,1.78,3.47,3.11,3.78S1011.07,475.53,1012.52,474.7ZM843.43,417.62l-1.67-.43c-.69,1.26-2.23,2.89-1.88,3.69.62,1.4,2.4,2.28,3.69,3.38l1.33-1Z" transform="translate(-35.17 -390.12)"/></g></svg>